%TF.GenerationSoftware,Altium Limited,Altium Designer,26.1.1 (7)*%
G04 Layer_Color=8388736*
%FSLAX45Y45*%
%MOMM*%
%TF.SameCoordinates,E435DE63-49F9-4575-A18B-2E203A751929*%
%TF.FilePolarity,Negative*%
%TF.FileFunction,Soldermask,Top*%
%TF.Part,Single*%
G01*
G75*
%TA.AperFunction,SMDPad,CuDef*%
%ADD12R,0.50000X0.60000*%
%ADD17R,1.25000X1.25000*%
%ADD18R,3.18213X1.00429*%
%TA.AperFunction,ConnectorPad*%
%ADD26R,1.38000X0.45000*%
%TA.AperFunction,SMDPad,CuDef*%
%ADD27R,0.60000X0.50000*%
%ADD30R,1.10000X1.00000*%
%TA.AperFunction,ConnectorPad*%
%ADD31R,1.55000X1.42500*%
%ADD32R,1.90000X1.00000*%
%ADD33R,1.90000X1.80000*%
%ADD34R,1.30000X1.65000*%
%TA.AperFunction,SMDPad,CuDef*%
%ADD54R,0.74320X0.78320*%
%TA.AperFunction,BGAPad,CuDef*%
%ADD55C,1.06620*%
%TA.AperFunction,SMDPad,CuDef*%
%ADD56O,1.00320X0.45320*%
G04:AMPARAMS|DCode=57|XSize=0.8032mm|YSize=0.9032mm|CornerRadius=0.1766mm|HoleSize=0mm|Usage=FLASHONLY|Rotation=180.000|XOffset=0mm|YOffset=0mm|HoleType=Round|Shape=RoundedRectangle|*
%AMROUNDEDRECTD57*
21,1,0.80320,0.55000,0,0,180.0*
21,1,0.45000,0.90320,0,0,180.0*
1,1,0.35320,-0.22500,0.27500*
1,1,0.35320,0.22500,0.27500*
1,1,0.35320,0.22500,-0.27500*
1,1,0.35320,-0.22500,-0.27500*
%
%ADD57ROUNDEDRECTD57*%
%ADD58O,0.45320X1.00320*%
G04:AMPARAMS|DCode=59|XSize=0.8032mm|YSize=0.9032mm|CornerRadius=0.1766mm|HoleSize=0mm|Usage=FLASHONLY|Rotation=270.000|XOffset=0mm|YOffset=0mm|HoleType=Round|Shape=RoundedRectangle|*
%AMROUNDEDRECTD59*
21,1,0.80320,0.55000,0,0,270.0*
21,1,0.45000,0.90320,0,0,270.0*
1,1,0.35320,-0.27500,-0.22500*
1,1,0.35320,-0.27500,0.22500*
1,1,0.35320,0.27500,0.22500*
1,1,0.35320,0.27500,-0.22500*
%
%ADD59ROUNDEDRECTD59*%
%ADD60R,1.00320X1.00320*%
%ADD61R,0.78320X0.74320*%
%ADD62R,0.55320X1.00320*%
%ADD63R,1.05320X0.55320*%
%ADD64R,1.00320X1.00320*%
%ADD65R,0.80400X1.90400*%
%ADD66R,2.80320X2.90320*%
%ADD67R,5.80320X5.80320*%
%ADD68R,1.15320X0.90320*%
%ADD69R,1.20400X2.90400*%
%TA.AperFunction,WasherPad*%
%ADD70C,1.27020*%
%TA.AperFunction,ViaPad*%
%ADD71C,2.87020*%
%TA.AperFunction,ComponentPad*%
%ADD72C,1.27020*%
%TA.AperFunction,ViaPad*%
%ADD73C,0.80320*%
%ADD74C,0.70320*%
%ADD75C,0.90320*%
D12*
X10629999Y9280000D02*
D03*
X8930000Y8110000D02*
D03*
X10530000Y9280000D02*
D03*
X8830000Y8110000D02*
D03*
D17*
X10720000Y7649500D02*
D03*
X10949000D02*
D03*
X10491000D02*
D03*
D18*
X10720000Y6990500D02*
D03*
D26*
X11050000Y8430000D02*
D03*
Y8235000D02*
D03*
Y8300000D02*
D03*
Y8365000D02*
D03*
Y8170000D02*
D03*
D27*
X9610000Y8990000D02*
D03*
Y8890000D02*
D03*
D30*
X8835000Y7670000D02*
D03*
X8670000Y7795000D02*
D03*
Y7670000D02*
D03*
X8835000Y7795000D02*
D03*
D31*
X11058500Y8548750D02*
D03*
Y8051250D02*
D03*
D32*
X11316000Y8455000D02*
D03*
D33*
Y8185000D02*
D03*
D34*
Y8637500D02*
D03*
Y7962500D02*
D03*
D54*
X9210000Y7970000D02*
D03*
Y8048000D02*
D03*
X10200000Y8488000D02*
D03*
X8684999Y9163000D02*
D03*
X9200000Y8428000D02*
D03*
X10200000Y8410000D02*
D03*
X9350000Y8901000D02*
D03*
X8684999Y9085000D02*
D03*
Y8906000D02*
D03*
X9200000Y8350000D02*
D03*
X9350000Y8979000D02*
D03*
X8684999Y8984000D02*
D03*
D55*
X10582000Y9055000D02*
D03*
X10328000D02*
D03*
X10455000Y8928000D02*
D03*
X10328000D02*
D03*
X10455000Y9055000D02*
D03*
X10582000Y8928000D02*
D03*
D56*
X10040000Y8435000D02*
D03*
X9360000Y8035000D02*
D03*
Y8435000D02*
D03*
X10040000Y8385000D02*
D03*
X9360000Y8085000D02*
D03*
X10040000Y8335000D02*
D03*
Y8285000D02*
D03*
Y8235000D02*
D03*
Y8185000D02*
D03*
Y8135000D02*
D03*
Y8085000D02*
D03*
Y8035000D02*
D03*
Y7985000D02*
D03*
Y7935000D02*
D03*
Y7885000D02*
D03*
X9360000D02*
D03*
Y7935000D02*
D03*
Y7985000D02*
D03*
Y8135000D02*
D03*
Y8185000D02*
D03*
Y8235000D02*
D03*
Y8285000D02*
D03*
Y8335000D02*
D03*
Y8385000D02*
D03*
D57*
X9540000Y9100000D02*
D03*
X9870000D02*
D03*
X10180000Y7800000D02*
D03*
X10280000Y6900000D02*
D03*
X10180000Y7950000D02*
D03*
X9770000Y9100000D02*
D03*
X9640000D02*
D03*
X10180000Y6900000D02*
D03*
X10280000Y7800000D02*
D03*
Y7950000D02*
D03*
D58*
X9425000Y8500000D02*
D03*
X9975000Y7820000D02*
D03*
X9925000D02*
D03*
X9475000Y8500000D02*
D03*
X9525000D02*
D03*
X9575000D02*
D03*
X9625000D02*
D03*
X9675000D02*
D03*
X9725000D02*
D03*
X9775000D02*
D03*
X9825000D02*
D03*
X9875000D02*
D03*
X9925000D02*
D03*
X9975000D02*
D03*
X9875000Y7820000D02*
D03*
X9825000D02*
D03*
X9775000D02*
D03*
X9725000D02*
D03*
X9675000D02*
D03*
X9625000D02*
D03*
X9575000D02*
D03*
X9525000D02*
D03*
X9475000D02*
D03*
X9425000D02*
D03*
D59*
X10185000Y7120000D02*
D03*
Y7020000D02*
D03*
D60*
X10590000Y6800000D02*
D03*
X10440000D02*
D03*
X9700000Y7650000D02*
D03*
X9850000D02*
D03*
D61*
X10053000D02*
D03*
X9402000Y8650000D02*
D03*
X8908999Y8685000D02*
D03*
X10341000Y9280000D02*
D03*
X9975000Y7650000D02*
D03*
X9480000Y8650000D02*
D03*
X8830999Y8685000D02*
D03*
X8621000Y7960000D02*
D03*
X8900000D02*
D03*
X8699000D02*
D03*
X10419000Y9280000D02*
D03*
X8822000Y7960000D02*
D03*
D62*
X8894999Y8810000D02*
D03*
X9144999Y9210000D02*
D03*
Y8810000D02*
D03*
X8944999D02*
D03*
X8995000D02*
D03*
X9044999D02*
D03*
X9095000D02*
D03*
X8894999Y9210000D02*
D03*
X8944999D02*
D03*
X8995000D02*
D03*
X9044999D02*
D03*
X9095000D02*
D03*
D63*
X8822499Y9085000D02*
D03*
Y8935000D02*
D03*
Y9035000D02*
D03*
Y8885000D02*
D03*
X9217499Y9085000D02*
D03*
Y9135000D02*
D03*
Y8885000D02*
D03*
Y8935000D02*
D03*
Y8985000D02*
D03*
Y9035000D02*
D03*
X8822499Y8985000D02*
D03*
Y9135000D02*
D03*
D64*
X9075000Y8450000D02*
D03*
X10570000Y7805000D02*
D03*
X10750000Y7800000D02*
D03*
X10270000Y7515000D02*
D03*
X9075000Y8300000D02*
D03*
X10750000Y7950000D02*
D03*
X10270000Y7665000D02*
D03*
X10570000Y7955000D02*
D03*
D65*
X9062500Y7162500D02*
D03*
X9687500D02*
D03*
X9312500D02*
D03*
X9562500D02*
D03*
X9187500D02*
D03*
X9437500D02*
D03*
D66*
X9019999Y9010000D02*
D03*
D67*
X9700000Y8160000D02*
D03*
D68*
X10577500Y8110000D02*
D03*
X10742500D02*
D03*
D69*
X9872500Y6842500D02*
D03*
X8877500D02*
D03*
D70*
X11350000Y9040000D02*
D03*
X8400000Y7050000D02*
D03*
D71*
X8510000Y9290000D02*
D03*
X8520000Y6820000D02*
D03*
X11230000Y6810000D02*
D03*
Y9290000D02*
D03*
D72*
X10709000Y8991500D02*
D03*
X10201000Y8889900D02*
D03*
Y9093100D02*
D03*
D73*
X10620000Y8450000D02*
D03*
X9320000Y9080000D02*
D03*
X9440000Y9320000D02*
D03*
X9270000Y9310000D02*
D03*
X10450000Y8630000D02*
D03*
X10340000Y8510000D02*
D03*
X11310000Y7710000D02*
D03*
X10880000Y8430000D02*
D03*
X8830000Y8590000D02*
D03*
X8560000Y8910000D02*
D03*
Y9020000D02*
D03*
X8640000Y8680000D02*
D03*
X9020000D02*
D03*
X8980000Y7870000D02*
D03*
X8720000Y6840000D02*
D03*
X9010000D02*
D03*
X9750000D02*
D03*
X10020000D02*
D03*
X9090000Y7900000D02*
D03*
X10240000Y9280000D02*
D03*
X10950000Y7790000D02*
D03*
X10320000Y7010000D02*
D03*
X10270000Y7400000D02*
D03*
X9970000Y7490000D02*
D03*
X9690000Y7350000D02*
D03*
X9460000Y8990000D02*
D03*
Y8900000D02*
D03*
X9480000Y8750000D02*
D03*
X9140000Y8700000D02*
D03*
X8950000Y8370000D02*
D03*
X8510000Y7960000D02*
D03*
X8970000Y7670000D02*
D03*
X8530000Y7800000D02*
D03*
D74*
X9920000Y8380000D02*
D03*
Y8270000D02*
D03*
X9810000D02*
D03*
X9700000Y8380000D02*
D03*
X9810000D02*
D03*
X9700000Y8160000D02*
D03*
Y8270000D02*
D03*
X9920000Y8050000D02*
D03*
Y7940000D02*
D03*
Y8160000D02*
D03*
X9810000D02*
D03*
Y8050000D02*
D03*
X9700000D02*
D03*
X9810000Y7940000D02*
D03*
X9700000D02*
D03*
X9074999Y9065000D02*
D03*
Y8955000D02*
D03*
X8965000Y9065000D02*
D03*
Y8955000D02*
D03*
X9590000Y8380000D02*
D03*
Y8270000D02*
D03*
Y8160000D02*
D03*
X9480000D02*
D03*
Y8380000D02*
D03*
Y8270000D02*
D03*
Y8050000D02*
D03*
X9590000D02*
D03*
Y7940000D02*
D03*
X9480000D02*
D03*
D75*
X9080000Y8030000D02*
D03*
X10330000Y9410000D02*
D03*
X9770000Y9200000D02*
D03*
X9520000D02*
D03*
%TF.MD5,23f8ac31c6b2d4c08e7d7d0ca8534f37*%
M02*
