%TF.GenerationSoftware,Altium Limited,Altium Designer,26.1.1 (7)*%
G04 Layer_Color=16711935*
%FSLAX45Y45*%
%MOMM*%
%TF.SameCoordinates,E435DE63-49F9-4575-A18B-2E203A751929*%
%TF.FilePolarity,Positive*%
%TF.FileFunction,Other,Top_Component_Center*%
%TF.Part,Single*%
G01*
G75*
%TA.AperFunction,NonConductor*%
%ADD76C,0.10000*%
D76*
X10670000Y7320000D02*
X10770000D01*
X10720000Y7270000D02*
Y7370000D01*
X11231000Y8300000D02*
X11331000D01*
X11281000Y8250000D02*
Y8350000D01*
X10579999Y9230000D02*
Y9330000D01*
X10530000Y9280000D02*
X10629999D01*
X9560000Y8940000D02*
X9660000D01*
X9610000Y8890000D02*
Y8990000D01*
X8880000Y8060000D02*
Y8160000D01*
X8830000Y8110000D02*
X8930000D01*
X8752500Y7682500D02*
Y7782500D01*
X8702500Y7732500D02*
X8802500D01*
X10750000Y7825000D02*
Y7925000D01*
X10700000Y7875000D02*
X10800000D01*
X10610000Y8110000D02*
X10710000D01*
X10660000Y8060000D02*
Y8160000D01*
X10270000Y7540000D02*
Y7640000D01*
X10220000Y7590000D02*
X10320000D01*
X10570000Y7830000D02*
Y7930000D01*
X10520000Y7880000D02*
X10620000D01*
X10465000Y6800000D02*
X10565000D01*
X10515000Y6750000D02*
Y6850000D01*
X9725000Y7650000D02*
X9825000D01*
X9775000Y7600000D02*
Y7700000D01*
X9075000Y8325000D02*
Y8425000D01*
X9025000Y8375000D02*
X9125000D01*
%TF.MD5,6fae60ddcbc5f44692fcde223234e062*%
M02*
