%TF.GenerationSoftware,Altium Limited,Altium Designer,26.1.1 (7)*%
G04 Layer_Physical_Order=3*
G04 Layer_Color=16440176*
%FSLAX45Y45*%
%MOMM*%
%TF.SameCoordinates,E435DE63-49F9-4575-A18B-2E203A751929*%
%TF.FilePolarity,Positive*%
%TF.FileFunction,Copper,L3,Inr,Signal*%
%TF.Part,Single*%
G01*
G75*
%TA.AperFunction,WasherPad*%
%ADD44C,1.06700*%
%TA.AperFunction,ViaPad*%
%ADD45C,2.66700*%
%TA.AperFunction,ComponentPad*%
%ADD46C,1.06700*%
%TA.AperFunction,ViaPad*%
%ADD47C,0.60000*%
%ADD48C,0.50000*%
%ADD49C,0.70000*%
G36*
X11312364Y9446909D02*
X11338589Y9437645D01*
X11362504Y9423443D01*
X11383188Y9404848D01*
X11399847Y9382575D01*
X11411841Y9357479D01*
X11416193Y9340397D01*
X11419446Y9316647D01*
X11419446Y9316639D01*
X11419446D01*
X11419447Y9316639D01*
X11419447Y6758639D01*
X11418463Y6746967D01*
X11411978Y6724456D01*
X11401226Y6703642D01*
X11386620Y6685327D01*
X11368720Y6670214D01*
X11348215Y6658884D01*
X11325894Y6651773D01*
X11316122Y6650673D01*
X11290942Y6650140D01*
Y6650140D01*
X8440947Y6650140D01*
X8432723Y6649500D01*
X8416341Y6651453D01*
X8400655Y6656564D01*
X8386268Y6664637D01*
X8373732Y6675363D01*
X8363529Y6688327D01*
X8356052Y6703033D01*
X8351587Y6718916D01*
X8350947Y6727140D01*
X8350947Y6727140D01*
Y8880140D01*
Y9271881D01*
X8376142Y9272377D01*
X8385264Y9238333D01*
X8402887Y9207809D01*
X8427809Y9182887D01*
X8458333Y9165264D01*
X8492377Y9156142D01*
X8527623D01*
X8561667Y9165264D01*
X8592191Y9182887D01*
X8617113Y9207809D01*
X8634736Y9238333D01*
X8643858Y9272377D01*
Y9307623D01*
X8634736Y9341667D01*
X8617113Y9372191D01*
X8592191Y9397113D01*
X8561667Y9414736D01*
X8527623Y9423858D01*
X8492377D01*
X8458333Y9414736D01*
X8427809Y9397113D01*
X8402887Y9372191D01*
X8385264Y9341667D01*
X8376142Y9307623D01*
X8350947Y9308119D01*
Y9341959D01*
X8355559Y9365142D01*
X8364605Y9386981D01*
X8377737Y9406635D01*
X8394452Y9423350D01*
X8414106Y9436482D01*
X8435945Y9445528D01*
X8459128Y9450140D01*
X8470947D01*
X10284002Y9450140D01*
X10289977Y9442612D01*
X10297672Y9424740D01*
X10294492Y9417063D01*
Y9402937D01*
X10299898Y9389886D01*
X10309886Y9379898D01*
X10322937Y9374492D01*
X10337063D01*
X10350114Y9379898D01*
X10360102Y9389886D01*
X10365508Y9402937D01*
Y9417063D01*
X10362328Y9424740D01*
X10370022Y9442612D01*
X10375998Y9450140D01*
X11270947D01*
X11284834Y9450878D01*
X11312364Y9446909D01*
D02*
G37*
%LPC*%
G36*
X9446068Y9350508D02*
X9433932D01*
X9422719Y9345863D01*
X9414137Y9337281D01*
X9409492Y9326068D01*
Y9313932D01*
X9414137Y9302719D01*
X9422719Y9294137D01*
X9433932Y9289492D01*
X9446068D01*
X9457281Y9294137D01*
X9465863Y9302719D01*
X9470508Y9313932D01*
Y9326068D01*
X9465863Y9337281D01*
X9457281Y9345863D01*
X9446068Y9350508D01*
D02*
G37*
G36*
X9777063Y9235508D02*
X9762937D01*
X9749886Y9230102D01*
X9739898Y9220114D01*
X9734492Y9207063D01*
Y9192937D01*
X9739898Y9179886D01*
X9749886Y9169898D01*
X9762937Y9164492D01*
X9777063D01*
X9790114Y9169898D01*
X9800102Y9179886D01*
X9805508Y9192937D01*
Y9207063D01*
X9800102Y9220114D01*
X9790114Y9230102D01*
X9777063Y9235508D01*
D02*
G37*
G36*
X9527063D02*
X9512937D01*
X9499886Y9230102D01*
X9489898Y9220114D01*
X9484492Y9207063D01*
Y9192937D01*
X9489898Y9179886D01*
X9499886Y9169898D01*
X9512937Y9164492D01*
X9527063D01*
X9540114Y9169898D01*
X9550102Y9179886D01*
X9555508Y9192937D01*
Y9207063D01*
X9550102Y9220114D01*
X9540114Y9230102D01*
X9527063Y9235508D01*
D02*
G37*
G36*
X11247623Y9423858D02*
X11212377D01*
X11178333Y9414736D01*
X11147809Y9397113D01*
X11122887Y9372191D01*
X11105264Y9341667D01*
X11096142Y9307623D01*
Y9272377D01*
X11105264Y9238333D01*
X11122887Y9207809D01*
X11147809Y9182887D01*
X11178333Y9165264D01*
X11212377Y9156142D01*
X11247623D01*
X11281667Y9165264D01*
X11312190Y9182887D01*
X11337113Y9207809D01*
X11354735Y9238333D01*
X11363858Y9272377D01*
Y9307623D01*
X11354735Y9341667D01*
X11337113Y9372191D01*
X11312190Y9397113D01*
X11281667Y9414736D01*
X11247623Y9423858D01*
D02*
G37*
G36*
X9326068Y9110508D02*
X9313932D01*
X9302719Y9105863D01*
X9294137Y9097281D01*
X9289492Y9086068D01*
Y9073932D01*
X9294137Y9062718D01*
X9302719Y9054137D01*
X9313932Y9049492D01*
X9326068D01*
X9337281Y9054137D01*
X9345863Y9062718D01*
X9350508Y9073932D01*
Y9086068D01*
X9345863Y9097281D01*
X9337281Y9105863D01*
X9326068Y9110508D01*
D02*
G37*
G36*
X10211713Y9146958D02*
X10190287D01*
X10170492Y9138759D01*
X10155341Y9123608D01*
X10147142Y9103813D01*
Y9082387D01*
X10155341Y9062592D01*
X10170492Y9047442D01*
X10190287Y9039242D01*
X10211713D01*
X10231508Y9047442D01*
X10246658Y9062592D01*
X10254858Y9082387D01*
Y9103813D01*
X10246658Y9123608D01*
X10231508Y9138759D01*
X10211713Y9146958D01*
D02*
G37*
G36*
X10719713Y9045358D02*
X10698287D01*
X10678492Y9037159D01*
X10663341Y9022008D01*
X10655142Y9002213D01*
Y8980787D01*
X10663341Y8960992D01*
X10678492Y8945842D01*
X10698287Y8937642D01*
X10719713D01*
X10739508Y8945842D01*
X10754658Y8960992D01*
X10762858Y8980787D01*
Y9002213D01*
X10754658Y9022008D01*
X10739508Y9037159D01*
X10719713Y9045358D01*
D02*
G37*
G36*
X10211713Y8943758D02*
X10190287D01*
X10170492Y8935559D01*
X10155341Y8920408D01*
X10147142Y8900613D01*
Y8879187D01*
X10155341Y8859392D01*
X10170492Y8844242D01*
X10190287Y8836042D01*
X10211713D01*
X10231508Y8844242D01*
X10246658Y8859392D01*
X10254858Y8879187D01*
Y8900613D01*
X10246658Y8920408D01*
X10231508Y8935559D01*
X10211713Y8943758D01*
D02*
G37*
G36*
X9026068Y8710508D02*
X9013932D01*
X9002719Y8705863D01*
X8994137Y8697281D01*
X8989492Y8686068D01*
Y8673932D01*
X8994137Y8662719D01*
X9002719Y8654137D01*
X9013932Y8649492D01*
X9026068D01*
X9037281Y8654137D01*
X9045863Y8662719D01*
X9050508Y8673932D01*
Y8686068D01*
X9045863Y8697281D01*
X9037281Y8705863D01*
X9026068Y8710508D01*
D02*
G37*
G36*
X8646068D02*
X8633932D01*
X8622719Y8705863D01*
X8614137Y8697281D01*
X8609492Y8686068D01*
Y8673932D01*
X8614137Y8662719D01*
X8622719Y8654137D01*
X8633932Y8649492D01*
X8646068D01*
X8657281Y8654137D01*
X8665863Y8662719D01*
X8670508Y8673932D01*
Y8686068D01*
X8665863Y8697281D01*
X8657281Y8705863D01*
X8646068Y8710508D01*
D02*
G37*
G36*
X10456068Y8660508D02*
X10443932D01*
X10432719Y8655863D01*
X10424137Y8647281D01*
X10419492Y8636068D01*
Y8623932D01*
X10424137Y8612719D01*
X10432719Y8604137D01*
X10443932Y8599492D01*
X10456068D01*
X10467281Y8604137D01*
X10475863Y8612719D01*
X10480508Y8623932D01*
Y8636068D01*
X10475863Y8647281D01*
X10467281Y8655863D01*
X10456068Y8660508D01*
D02*
G37*
G36*
X10626068Y8480508D02*
X10613932D01*
X10602719Y8475863D01*
X10594137Y8467282D01*
X10589492Y8456068D01*
Y8443932D01*
X10594137Y8432719D01*
X10602719Y8424137D01*
X10613932Y8419492D01*
X10626068D01*
X10637281Y8424137D01*
X10645863Y8432719D01*
X10650508Y8443932D01*
Y8456068D01*
X10645863Y8467282D01*
X10637281Y8475863D01*
X10626068Y8480508D01*
D02*
G37*
G36*
X9087063Y8065508D02*
X9072937D01*
X9059886Y8060102D01*
X9049898Y8050114D01*
X9044492Y8037063D01*
Y8022937D01*
X9049898Y8009886D01*
X9059886Y7999898D01*
X9072937Y7994492D01*
X9087063D01*
X9100114Y7999898D01*
X9110102Y8009886D01*
X9115508Y8022937D01*
Y8037063D01*
X9110102Y8050114D01*
X9100114Y8060102D01*
X9087063Y8065508D01*
D02*
G37*
G36*
X11316068Y7740508D02*
X11303932D01*
X11292719Y7735863D01*
X11284137Y7727281D01*
X11279492Y7716068D01*
Y7703932D01*
X11284137Y7692719D01*
X11292719Y7684137D01*
X11303932Y7679492D01*
X11316068D01*
X11327281Y7684137D01*
X11335863Y7692719D01*
X11340508Y7703932D01*
Y7716068D01*
X11335863Y7727281D01*
X11327281Y7735863D01*
X11316068Y7740508D01*
D02*
G37*
G36*
X10026068Y6870508D02*
X10013932D01*
X10002719Y6865863D01*
X9994137Y6857281D01*
X9989492Y6846068D01*
Y6833932D01*
X9994137Y6822719D01*
X10002719Y6814137D01*
X10013932Y6809492D01*
X10026068D01*
X10037281Y6814137D01*
X10045863Y6822719D01*
X10050508Y6833932D01*
Y6846068D01*
X10045863Y6857281D01*
X10037281Y6865863D01*
X10026068Y6870508D01*
D02*
G37*
G36*
X9756068D02*
X9743932D01*
X9732719Y6865863D01*
X9724137Y6857281D01*
X9719492Y6846068D01*
Y6833932D01*
X9724137Y6822719D01*
X9732719Y6814137D01*
X9743932Y6809492D01*
X9756068D01*
X9767281Y6814137D01*
X9775863Y6822719D01*
X9780508Y6833932D01*
Y6846068D01*
X9775863Y6857281D01*
X9767281Y6865863D01*
X9756068Y6870508D01*
D02*
G37*
G36*
X9016068D02*
X9003932D01*
X8992719Y6865863D01*
X8984137Y6857281D01*
X8979492Y6846068D01*
Y6833932D01*
X8984137Y6822719D01*
X8992719Y6814137D01*
X9003932Y6809492D01*
X9016068D01*
X9027281Y6814137D01*
X9035863Y6822719D01*
X9040508Y6833932D01*
Y6846068D01*
X9035863Y6857281D01*
X9027281Y6865863D01*
X9016068Y6870508D01*
D02*
G37*
G36*
X8726068D02*
X8713932D01*
X8702719Y6865863D01*
X8694137Y6857281D01*
X8689492Y6846068D01*
Y6833932D01*
X8694137Y6822719D01*
X8702719Y6814137D01*
X8713932Y6809492D01*
X8726068D01*
X8737281Y6814137D01*
X8745863Y6822719D01*
X8750508Y6833932D01*
Y6846068D01*
X8745863Y6857281D01*
X8737281Y6865863D01*
X8726068Y6870508D01*
D02*
G37*
G36*
X8537623Y6953858D02*
X8502377D01*
X8468333Y6944736D01*
X8437809Y6927113D01*
X8412887Y6902191D01*
X8395264Y6871667D01*
X8386142Y6837623D01*
Y6802377D01*
X8395264Y6768333D01*
X8412887Y6737809D01*
X8437809Y6712887D01*
X8468333Y6695264D01*
X8502377Y6686142D01*
X8537623D01*
X8571667Y6695264D01*
X8602191Y6712887D01*
X8627113Y6737809D01*
X8644736Y6768333D01*
X8653858Y6802377D01*
Y6837623D01*
X8644736Y6871667D01*
X8627113Y6902191D01*
X8602191Y6927113D01*
X8571667Y6944736D01*
X8537623Y6953858D01*
D02*
G37*
G36*
X11247623Y6943858D02*
X11212377D01*
X11178333Y6934736D01*
X11147809Y6917113D01*
X11122887Y6892191D01*
X11105264Y6861667D01*
X11096142Y6827623D01*
Y6792377D01*
X11105264Y6758333D01*
X11122887Y6727810D01*
X11147809Y6702887D01*
X11178333Y6685265D01*
X11212377Y6676142D01*
X11247623D01*
X11281667Y6685265D01*
X11312190Y6702887D01*
X11337113Y6727810D01*
X11354735Y6758333D01*
X11363858Y6792377D01*
Y6827623D01*
X11354735Y6861667D01*
X11337113Y6892191D01*
X11312190Y6917113D01*
X11281667Y6934736D01*
X11247623Y6943858D01*
D02*
G37*
%LPD*%
D44*
X11350000Y9040000D02*
D03*
X8400000Y7050000D02*
D03*
D45*
X8510000Y9290000D02*
D03*
X8520000Y6820000D02*
D03*
X11230000Y6810000D02*
D03*
Y9290000D02*
D03*
D46*
X10709000Y8991500D02*
D03*
X10201000Y8889900D02*
D03*
Y9093100D02*
D03*
D47*
X10620000Y8450000D02*
D03*
X9320000Y9080000D02*
D03*
X9440000Y9320000D02*
D03*
X9270000Y9310000D02*
D03*
X10450000Y8630000D02*
D03*
X10340000Y8510000D02*
D03*
X11310000Y7710000D02*
D03*
X10880000Y8430000D02*
D03*
X8830000Y8590000D02*
D03*
X8560000Y8910000D02*
D03*
Y9020000D02*
D03*
X8640000Y8680000D02*
D03*
X9020000D02*
D03*
X8980000Y7870000D02*
D03*
X8720000Y6840000D02*
D03*
X9010000D02*
D03*
X9750000D02*
D03*
X10020000D02*
D03*
X9090000Y7900000D02*
D03*
X10240000Y9280000D02*
D03*
X10950000Y7790000D02*
D03*
X10320000Y7010000D02*
D03*
X10270000Y7400000D02*
D03*
X9970000Y7490000D02*
D03*
X9690000Y7350000D02*
D03*
X9460000Y8990000D02*
D03*
Y8900000D02*
D03*
X9480000Y8750000D02*
D03*
X9140000Y8700000D02*
D03*
X8950000Y8370000D02*
D03*
X8510000Y7960000D02*
D03*
X8970000Y7670000D02*
D03*
X8530000Y7800000D02*
D03*
D48*
X9920000Y8380000D02*
D03*
Y8270000D02*
D03*
X9810000D02*
D03*
X9700000Y8380000D02*
D03*
X9810000D02*
D03*
X9700000Y8160000D02*
D03*
Y8270000D02*
D03*
X9920000Y8050000D02*
D03*
Y7940000D02*
D03*
Y8160000D02*
D03*
X9810000D02*
D03*
Y8050000D02*
D03*
X9700000D02*
D03*
X9810000Y7940000D02*
D03*
X9700000D02*
D03*
X9074999Y9065000D02*
D03*
Y8955000D02*
D03*
X8965000Y9065000D02*
D03*
Y8955000D02*
D03*
X9590000Y8380000D02*
D03*
Y8270000D02*
D03*
Y8160000D02*
D03*
X9480000D02*
D03*
Y8380000D02*
D03*
Y8270000D02*
D03*
Y8050000D02*
D03*
X9590000D02*
D03*
Y7940000D02*
D03*
X9480000D02*
D03*
D49*
X9080000Y8030000D02*
D03*
X10330000Y9410000D02*
D03*
X9770000Y9200000D02*
D03*
X9520000D02*
D03*
%TF.MD5,251817bfab233635fe074866f833b82a*%
M02*
