%TF.GenerationSoftware,Altium Limited,Altium Designer,26.1.1 (7)*%
G04 Layer_Color=0*
%FSLAX45Y45*%
%MOMM*%
%TF.SameCoordinates,E435DE63-49F9-4575-A18B-2E203A751929*%
%TF.FilePolarity,Positive*%
%TF.FileFunction,Plated,1,4,PTH,Drill*%
%TF.Part,Single*%
G01*
G75*
%TA.AperFunction,OtherDrill,Pad Free-MH (85.1mm,92.9mm)*%
%ADD84C,2.56499*%
%TA.AperFunction,OtherDrill,Pad Free-MH (85.2mm,68.2mm)*%
%ADD85C,2.56499*%
%TA.AperFunction,OtherDrill,Pad Free-MH (112.3mm,68.1mm)*%
%ADD86C,2.56499*%
%TA.AperFunction,OtherDrill,Pad Free-MH (112.3mm,92.9mm)*%
%ADD87C,2.56499*%
%TA.AperFunction,ViaDrill,NotFilled*%
%ADD88C,0.25000*%
%ADD89C,0.20000*%
%ADD90C,0.30000*%
D84*
X8510000Y9290000D02*
D03*
D85*
X8520000Y6820000D02*
D03*
D86*
X11230000Y6810000D02*
D03*
D87*
Y9290000D02*
D03*
D88*
X10620000Y8450000D02*
D03*
X9320000Y9080000D02*
D03*
X9440000Y9320000D02*
D03*
X9270000Y9310000D02*
D03*
X10450000Y8630000D02*
D03*
X10340000Y8510000D02*
D03*
X11310000Y7710000D02*
D03*
X10880000Y8430000D02*
D03*
X8830000Y8590000D02*
D03*
X8560000Y8910000D02*
D03*
Y9020000D02*
D03*
X8640000Y8680000D02*
D03*
X9020000D02*
D03*
X8980000Y7870000D02*
D03*
X8720000Y6840000D02*
D03*
X9010000D02*
D03*
X9750000D02*
D03*
X10020000D02*
D03*
X9090000Y7900000D02*
D03*
X10240000Y9280000D02*
D03*
X10950000Y7790000D02*
D03*
X10320000Y7010000D02*
D03*
X10270000Y7400000D02*
D03*
X9970000Y7490000D02*
D03*
X9690000Y7350000D02*
D03*
X9460000Y8990000D02*
D03*
Y8900000D02*
D03*
X9480000Y8750000D02*
D03*
X9140000Y8700000D02*
D03*
X8950000Y8370000D02*
D03*
X8510000Y7960000D02*
D03*
X8970000Y7670000D02*
D03*
X8530000Y7800000D02*
D03*
D89*
X9920000Y8380000D02*
D03*
Y8270000D02*
D03*
X9810000D02*
D03*
X9700000Y8380000D02*
D03*
X9810000D02*
D03*
X9700000Y8160000D02*
D03*
Y8270000D02*
D03*
X9920000Y8050000D02*
D03*
Y7940000D02*
D03*
Y8160000D02*
D03*
X9810000D02*
D03*
Y8050000D02*
D03*
X9700000D02*
D03*
X9810000Y7940000D02*
D03*
X9700000D02*
D03*
X9074999Y9065000D02*
D03*
Y8955000D02*
D03*
X8965000Y9065000D02*
D03*
Y8955000D02*
D03*
X9590000Y8380000D02*
D03*
Y8270000D02*
D03*
Y8160000D02*
D03*
X9480000D02*
D03*
Y8380000D02*
D03*
Y8270000D02*
D03*
Y8050000D02*
D03*
X9590000D02*
D03*
Y7940000D02*
D03*
X9480000D02*
D03*
D90*
X9080000Y8030000D02*
D03*
X10330000Y9410000D02*
D03*
X9770000Y9200000D02*
D03*
X9520000D02*
D03*
%TF.MD5,a013c643a6b31f9538a2cdf0c09bd333*%
M02*
