%TF.GenerationSoftware,Altium Limited,Altium Designer,26.1.1 (7)*%
G04 Layer_Physical_Order=4*
G04 Layer_Color=16711680*
%FSLAX45Y45*%
%MOMM*%
%TF.SameCoordinates,E435DE63-49F9-4575-A18B-2E203A751929*%
%TF.FilePolarity,Positive*%
%TF.FileFunction,Copper,L4,Bot,Signal*%
%TF.Part,Single*%
G01*
G75*
%TA.AperFunction,Conductor*%
%ADD37C,0.75001*%
%ADD38C,0.20000*%
%ADD39C,0.30000*%
%ADD41C,1.00000*%
%TA.AperFunction,WasherPad*%
%ADD44C,1.06700*%
%TA.AperFunction,ViaPad*%
%ADD45C,2.66700*%
%TA.AperFunction,ComponentPad*%
%ADD46C,1.06700*%
%TA.AperFunction,ViaPad*%
%ADD47C,0.60000*%
%ADD48C,0.50000*%
%ADD49C,0.70000*%
D37*
X10450000Y8620000D02*
X11310000Y7760000D01*
X10450000Y8620000D02*
Y8630000D01*
X11310000Y7710000D02*
Y7760000D01*
X9320000Y9080000D02*
X9440000Y9200000D01*
Y9320000D01*
D38*
X9080000Y8030000D02*
X9260000Y8210000D01*
Y8310000D02*
X9280000Y8330000D01*
X9260000Y8210000D02*
Y8310000D01*
X10240000Y9410000D02*
X10330000D01*
X9980000Y9150000D02*
X10240000Y9410000D01*
X9980000Y8770000D02*
Y9150000D01*
X9790000Y8580000D02*
X9980000Y8770000D01*
X9291716Y8580000D02*
X9790000D01*
X9280000Y8568284D02*
X9291716Y8580000D01*
X9280000Y8330000D02*
Y8568284D01*
X9520000Y9200000D02*
X9770000D01*
D39*
X8690000Y8510000D02*
X8960000D01*
X9020000Y8570000D01*
X8640000Y8560000D02*
X8690000Y8510000D01*
X8640000Y8560000D02*
Y8680000D01*
X9020000Y8570000D02*
Y8680000D01*
D41*
X8720000Y6840000D02*
X9010000D01*
X9750000D02*
X10020000D01*
D44*
X11350000Y9040000D02*
D03*
X8400000Y7050000D02*
D03*
D45*
X8510000Y9290000D02*
D03*
X8520000Y6820000D02*
D03*
X11230000Y6810000D02*
D03*
Y9290000D02*
D03*
D46*
X10709000Y8991500D02*
D03*
X10201000Y8889900D02*
D03*
Y9093100D02*
D03*
D47*
X10620000Y8450000D02*
D03*
X9320000Y9080000D02*
D03*
X9440000Y9320000D02*
D03*
X9270000Y9310000D02*
D03*
X10450000Y8630000D02*
D03*
X10340000Y8510000D02*
D03*
X11310000Y7710000D02*
D03*
X10880000Y8430000D02*
D03*
X8830000Y8590000D02*
D03*
X8560000Y8910000D02*
D03*
Y9020000D02*
D03*
X8640000Y8680000D02*
D03*
X9020000D02*
D03*
X8980000Y7870000D02*
D03*
X8720000Y6840000D02*
D03*
X9010000D02*
D03*
X9750000D02*
D03*
X10020000D02*
D03*
X9090000Y7900000D02*
D03*
X10240000Y9280000D02*
D03*
X10950000Y7790000D02*
D03*
X10320000Y7010000D02*
D03*
X10270000Y7400000D02*
D03*
X9970000Y7490000D02*
D03*
X9690000Y7350000D02*
D03*
X9460000Y8990000D02*
D03*
Y8900000D02*
D03*
X9480000Y8750000D02*
D03*
X9140000Y8700000D02*
D03*
X8950000Y8370000D02*
D03*
X8510000Y7960000D02*
D03*
X8970000Y7670000D02*
D03*
X8530000Y7800000D02*
D03*
D48*
X9920000Y8380000D02*
D03*
Y8270000D02*
D03*
X9810000D02*
D03*
X9700000Y8380000D02*
D03*
X9810000D02*
D03*
X9700000Y8160000D02*
D03*
Y8270000D02*
D03*
X9920000Y8050000D02*
D03*
Y7940000D02*
D03*
Y8160000D02*
D03*
X9810000D02*
D03*
Y8050000D02*
D03*
X9700000D02*
D03*
X9810000Y7940000D02*
D03*
X9700000D02*
D03*
X9074999Y9065000D02*
D03*
Y8955000D02*
D03*
X8965000Y9065000D02*
D03*
Y8955000D02*
D03*
X9590000Y8380000D02*
D03*
Y8270000D02*
D03*
Y8160000D02*
D03*
X9480000D02*
D03*
Y8380000D02*
D03*
Y8270000D02*
D03*
Y8050000D02*
D03*
X9590000D02*
D03*
Y7940000D02*
D03*
X9480000D02*
D03*
D49*
X9080000Y8030000D02*
D03*
X10330000Y9410000D02*
D03*
X9770000Y9200000D02*
D03*
X9520000D02*
D03*
%TF.MD5,0b00450603cd4ffa61f2969eb3a06a89*%
M02*
