%TF.GenerationSoftware,Altium Limited,Altium Designer,26.1.1 (7)*%
G04 Layer_Physical_Order=1*
G04 Layer_Color=255*
%FSLAX45Y45*%
%MOMM*%
%TF.SameCoordinates,E435DE63-49F9-4575-A18B-2E203A751929*%
%TF.FilePolarity,Positive*%
%TF.FileFunction,Copper,L1,Top,Signal*%
%TF.Part,Single*%
G01*
G75*
%TA.AperFunction,Conductor*%
%ADD10C,0.50000*%
%TA.AperFunction,SMDPad,CuDef*%
%ADD11R,0.54000X0.58000*%
%ADD12R,0.50000X0.60000*%
%TA.AperFunction,BGAPad,CuDef*%
%ADD13C,0.86300*%
%TA.AperFunction,SMDPad,CuDef*%
%ADD14O,0.80000X0.25000*%
G04:AMPARAMS|DCode=15|XSize=0.6mm|YSize=0.7mm|CornerRadius=0.075mm|HoleSize=0mm|Usage=FLASHONLY|Rotation=180.000|XOffset=0mm|YOffset=0mm|HoleType=Round|Shape=RoundedRectangle|*
%AMROUNDEDRECTD15*
21,1,0.60000,0.55000,0,0,180.0*
21,1,0.45000,0.70000,0,0,180.0*
1,1,0.15000,-0.22500,0.27500*
1,1,0.15000,0.22500,0.27500*
1,1,0.15000,0.22500,-0.27500*
1,1,0.15000,-0.22500,-0.27500*
%
%ADD15ROUNDEDRECTD15*%
%ADD16O,0.25000X0.80000*%
%ADD17R,1.25000X1.25000*%
%ADD18R,3.18213X1.00429*%
G04:AMPARAMS|DCode=19|XSize=0.6mm|YSize=0.7mm|CornerRadius=0.075mm|HoleSize=0mm|Usage=FLASHONLY|Rotation=270.000|XOffset=0mm|YOffset=0mm|HoleType=Round|Shape=RoundedRectangle|*
%AMROUNDEDRECTD19*
21,1,0.60000,0.55000,0,0,270.0*
21,1,0.45000,0.70000,0,0,270.0*
1,1,0.15000,-0.27500,-0.22500*
1,1,0.15000,-0.27500,0.22500*
1,1,0.15000,0.27500,0.22500*
1,1,0.15000,0.27500,-0.22500*
%
%ADD19ROUNDEDRECTD19*%
%ADD20R,0.80000X0.80000*%
%ADD21R,0.58000X0.54000*%
%ADD22R,0.35000X0.80000*%
%ADD23R,0.85000X0.35000*%
%ADD24R,0.80000X0.80000*%
%ADD25R,0.60000X1.70000*%
%TA.AperFunction,ConnectorPad*%
%ADD26R,1.38000X0.45000*%
%TA.AperFunction,SMDPad,CuDef*%
%ADD27R,0.60000X0.50000*%
%ADD28R,2.60000X2.70000*%
%ADD29R,5.60000X5.60000*%
%ADD30R,1.10000X1.00000*%
%TA.AperFunction,ConnectorPad*%
%ADD31R,1.55000X1.42500*%
%ADD32R,1.90000X1.00000*%
%ADD33R,1.90000X1.80000*%
%ADD34R,1.30000X1.65000*%
%TA.AperFunction,SMDPad,CuDef*%
%ADD35R,0.95000X0.70000*%
%ADD36R,1.00000X2.70000*%
%TA.AperFunction,Conductor*%
%ADD37C,0.75001*%
%ADD38C,0.20000*%
%ADD39C,0.30000*%
%ADD40C,0.24999*%
%ADD41C,1.00000*%
%ADD42C,0.25000*%
%ADD43C,0.26111*%
%TA.AperFunction,WasherPad*%
%ADD44C,1.06700*%
%TA.AperFunction,ViaPad*%
%ADD45C,2.66700*%
%TA.AperFunction,ComponentPad*%
%ADD46C,1.06700*%
%TA.AperFunction,ViaPad*%
%ADD47C,0.60000*%
%ADD48C,0.50000*%
%ADD49C,0.70000*%
G36*
X10640000Y8190000D02*
Y7910000D01*
X10630000Y7900000D01*
X10510000D01*
X10505000Y7905000D01*
Y7895000D01*
X10480000Y7870000D01*
Y7740000D01*
X10500000Y7720000D01*
X10560000D01*
X10570000Y7710000D01*
Y7560000D01*
X10430000Y7560000D01*
X10400000Y7590000D01*
X10170000D01*
X10160000Y7600000D01*
Y7730000D01*
X10170000Y7740000D01*
X10360000D01*
X10370000Y7750000D01*
Y7930000D01*
X10485000Y8045000D01*
X10500000D01*
Y8180000D01*
X10520000Y8200000D01*
X10630000D01*
X10640000Y8190000D01*
D02*
G37*
G36*
X11130000D02*
Y8150000D01*
X11120000Y8140000D01*
X10850000D01*
X10830000Y8120000D01*
Y7910000D01*
X10810000Y7890000D01*
X10690000D01*
X10670000Y7910000D01*
Y8190000D01*
X10680000Y8200000D01*
X11120000D01*
X11130000Y8190000D01*
D02*
G37*
G36*
X11030000Y7830000D02*
Y7580000D01*
X10850000D01*
X10830000Y7600000D01*
Y7710000D01*
X10790000Y7750000D01*
X10510000D01*
X10500000Y7760000D01*
Y7850000D01*
X10510000Y7860000D01*
X11000000D01*
X11030000Y7830000D01*
D02*
G37*
G36*
X10714985Y7700000D02*
X10700293Y7697078D01*
X10683586Y7685914D01*
X10672422Y7669207D01*
X10668502Y7649500D01*
Y7465000D01*
X10672422Y7445292D01*
X10683586Y7428586D01*
X10768586Y7343586D01*
X10785292Y7332422D01*
X10800000Y7329497D01*
Y7070000D01*
X10880000D01*
X10900000Y7050000D01*
Y6920000D01*
X10730000D01*
X10670000Y6860000D01*
Y6730000D01*
X10648538D01*
X10641497Y6738579D01*
Y6800000D01*
X10637577Y6819707D01*
X10626414Y6836414D01*
X10609707Y6847578D01*
X10590000Y6851498D01*
X10570293Y6847578D01*
X10553586Y6836414D01*
X10542422Y6819707D01*
X10538502Y6800000D01*
Y6769036D01*
X10530000Y6762640D01*
X10510000Y6772620D01*
Y6910000D01*
X10540000Y6940000D01*
Y7050000D01*
X10520000Y7070000D01*
Y7141040D01*
X10531250Y7145700D01*
X10540000Y7147344D01*
X10556186Y7136529D01*
X10560081Y7135754D01*
Y7025715D01*
X10561285Y7019664D01*
X10564713Y7014534D01*
X10599927Y6979320D01*
X10605057Y6975892D01*
X10611108Y6974688D01*
X10720000D01*
X10726051Y6975892D01*
X10731180Y6979320D01*
X10734608Y6984449D01*
X10735812Y6990500D01*
X10734608Y6996551D01*
X10731180Y7001681D01*
X10726051Y7005108D01*
X10720000Y7006312D01*
X10617657D01*
X10591705Y7032264D01*
Y7135754D01*
X10595600Y7136529D01*
X10612307Y7147693D01*
X10623471Y7164400D01*
X10627391Y7184107D01*
X10623471Y7203814D01*
X10612307Y7220521D01*
X10570000Y7262829D01*
Y7500000D01*
X10600000Y7530000D01*
Y7690000D01*
X10630000Y7720000D01*
X10713015D01*
X10714985Y7700000D01*
D02*
G37*
%LPC*%
G36*
X10744999Y7831106D02*
Y7831008D01*
X10570000D01*
X10560047Y7829028D01*
X10551610Y7823390D01*
X10545972Y7814953D01*
X10543993Y7805000D01*
X10545972Y7795047D01*
X10551610Y7786610D01*
X10560047Y7780972D01*
X10570000Y7778993D01*
X10735527D01*
X10740047Y7775972D01*
X10750000Y7773992D01*
X10922992D01*
Y7649500D01*
X10924972Y7639547D01*
X10930610Y7631110D01*
X10939047Y7625472D01*
X10949000Y7623493D01*
X10958953Y7625472D01*
X10967390Y7631110D01*
X10973028Y7639547D01*
X10975008Y7649500D01*
Y7784972D01*
X10976008Y7789999D01*
X10976204D01*
X10973448Y7803855D01*
X10970786Y7807838D01*
X10965600Y7815600D01*
X10953855Y7823448D01*
X10939999Y7826204D01*
Y7826007D01*
X10760990D01*
X10756904Y7828739D01*
X10744999Y7831106D01*
D02*
G37*
%LPD*%
D10*
X10750000Y7800000D02*
G03*
X10745000Y7805000I-5000J0D01*
G01*
X10950000Y7790000D02*
G03*
X10940000Y7800000I-10000J0D01*
G01*
X8776091Y9042293D02*
G03*
X8776110Y9042290I3909J25207D01*
G01*
X8768918Y9044525D02*
G03*
X8776091Y9042293I11081J22975D01*
G01*
X8560000Y8910000D02*
G03*
X8564000Y8906000I4000J0D01*
G01*
X10328000Y9055000D02*
G03*
X10341000Y9068000I0J13000D01*
G01*
X9540000Y9095000D02*
Y9100000D01*
X9535000Y9090000D02*
X9540000Y9095000D01*
X9530000Y9090000D02*
X9535000D01*
X9520000Y9080000D02*
X9530000Y9090000D01*
X9400000Y9080000D02*
X9520000D01*
X9074999Y9065000D02*
X9125000Y9115000D01*
Y9146426D01*
X9138008Y9159434D01*
Y9203008D01*
X9144999Y9210000D01*
X9268087Y9308087D02*
X9270000Y9310000D01*
X9235586Y9308087D02*
X9268087D01*
X9144999Y9217500D02*
X9235586Y9308087D01*
X9010000Y6840000D02*
Y6842706D01*
X9062500Y6895206D01*
Y7162500D01*
X10629999Y9275000D02*
Y9280000D01*
X10582000Y9227001D02*
X10629999Y9275000D01*
X10582000Y9055000D02*
Y9227001D01*
X10200000Y8488000D02*
X10202000Y8490000D01*
Y8542000D01*
X10250000Y8590000D01*
X10340000D01*
X10380000Y8630000D01*
X10244000Y8414000D02*
X10340000Y8510000D01*
X10629999Y9280000D02*
X10790000D01*
X10910000Y9160000D01*
X10880000Y8430000D02*
X11050000D01*
X8830500Y8590500D02*
Y8684501D01*
X8830000Y8590000D02*
X8830500Y8590500D01*
Y8684501D02*
X8830999Y8685000D01*
X9870000Y9100000D02*
Y9250000D01*
X8683966Y9083967D02*
X8684999Y9085000D01*
X8623967Y9083967D02*
X8683966D01*
X8561913Y9021913D02*
X8623967Y9083967D01*
X8930000Y8460000D02*
X9065000D01*
X9090000Y8435000D01*
X8978087Y7871913D02*
X8980000Y7870000D01*
X8978087Y7871913D02*
Y7883913D01*
X8902000Y7960000D02*
X8978087Y7883913D01*
X8900000Y7960000D02*
X8902000D01*
X10185000Y7120000D02*
X10190000D01*
X10195000Y7125000D01*
Y7130000D01*
X10210000Y7145000D01*
Y7180000D01*
X10207574Y7182426D02*
X10210000Y7180000D01*
X10207574Y7182426D02*
Y7247574D01*
X9090000Y7900000D02*
Y7902706D01*
X9110000Y7922706D01*
Y7940000D01*
X9150000Y7980000D01*
Y8004711D01*
X9189289Y8044000D01*
X9208000D01*
X9210000Y8046000D01*
Y8048000D01*
X10750000Y7800000D02*
X10940000D01*
X10570000Y7805000D02*
X10745000D01*
X10949000Y7790000D02*
X10950000D01*
X10949000Y7649500D02*
Y7790000D01*
X8776110Y9042290D02*
X8822499Y9035000D01*
X8686999Y9084035D02*
X8768918Y9044525D01*
X8564000Y8906000D02*
X8684999D01*
X9090000Y8435000D02*
X9206999D01*
X10341000Y9068000D02*
Y9280000D01*
X10240000D02*
X10341000D01*
X10240000Y9280000D02*
Y9280000D01*
X10200000Y8412000D02*
X10202000Y8414000D01*
X10244000D01*
X10200000Y8410000D02*
Y8412000D01*
X9600000Y8990000D02*
X9610000D01*
X10320000Y7010000D02*
X10321913Y7008087D01*
X10270000Y7400000D02*
Y7515000D01*
X10321913Y6998087D02*
X10326790Y6993210D01*
Y6951790D02*
Y6993210D01*
X10321913Y6998087D02*
Y7008087D01*
X10280000Y6905000D02*
X10326790Y6951790D01*
X10280000Y6900000D02*
Y6905000D01*
X9971913Y7648000D02*
X9973913Y7650000D01*
X9971913Y7491913D02*
Y7648000D01*
X9700000Y7362706D02*
Y7650000D01*
X9970000Y7490000D02*
X9971913Y7491913D01*
X9690000Y7352706D02*
X9700000Y7362706D01*
X9690000Y7350000D02*
Y7352706D01*
X9688750Y7348750D02*
X9690000Y7350000D01*
X9688750Y7163750D02*
Y7348750D01*
X9687500Y7162500D02*
X9688750Y7163750D01*
X9460000Y8990000D02*
X9600000D01*
X9600000Y8990000D01*
X9350500Y8900500D02*
X9459500D01*
X9350000Y8901000D02*
X9350500Y8900500D01*
X9459500D02*
X9460000Y8900000D01*
X9140000Y8702706D02*
X9144999Y8707706D01*
Y8810000D01*
X9140000Y8700000D02*
Y8702706D01*
X8684999Y9085000D02*
X8686999Y9084035D01*
X9198000Y8346000D02*
X9200000Y8348000D01*
Y8350000D01*
X9110000Y8310000D02*
X9146000Y8346000D01*
X9198000D01*
X9084999Y8310000D02*
X9110000D01*
X9075000Y8300000D02*
X9084999Y8310000D01*
X9006913Y8368087D02*
X9075000Y8300000D01*
X8951913Y8368087D02*
X9006913D01*
X8950000Y8370000D02*
X8951913Y8368087D01*
X8670000Y7795000D02*
Y7800000D01*
X8668087Y7798087D02*
X8670000Y7800000D01*
X8835000Y7670000D02*
X8970000D01*
X8510000Y7960000D02*
X8621000D01*
X8531913Y7798087D02*
X8668087D01*
X8530000Y7800000D02*
X8531913Y7798087D01*
X10280000Y7800000D02*
Y7950000D01*
D11*
X9210000Y7970000D02*
D03*
Y8048000D02*
D03*
X10200000Y8488000D02*
D03*
X8684999Y9163000D02*
D03*
X9200000Y8428000D02*
D03*
X10200000Y8410000D02*
D03*
X9350000Y8901000D02*
D03*
X8684999Y9085000D02*
D03*
Y8906000D02*
D03*
X9200000Y8350000D02*
D03*
X9350000Y8979000D02*
D03*
X8684999Y8984000D02*
D03*
D12*
X10629999Y9280000D02*
D03*
X8930000Y8110000D02*
D03*
X10530000Y9280000D02*
D03*
X8830000Y8110000D02*
D03*
D13*
X10582000Y9055000D02*
D03*
X10328000D02*
D03*
X10455000Y8928000D02*
D03*
X10328000D02*
D03*
X10455000Y9055000D02*
D03*
X10582000Y8928000D02*
D03*
D14*
X10040000Y8435000D02*
D03*
X9360000Y8035000D02*
D03*
Y8435000D02*
D03*
X10040000Y8385000D02*
D03*
X9360000Y8085000D02*
D03*
X10040000Y8335000D02*
D03*
Y8285000D02*
D03*
Y8235000D02*
D03*
Y8185000D02*
D03*
Y8135000D02*
D03*
Y8085000D02*
D03*
Y8035000D02*
D03*
Y7985000D02*
D03*
Y7935000D02*
D03*
Y7885000D02*
D03*
X9360000D02*
D03*
Y7935000D02*
D03*
Y7985000D02*
D03*
Y8135000D02*
D03*
Y8185000D02*
D03*
Y8235000D02*
D03*
Y8285000D02*
D03*
Y8335000D02*
D03*
Y8385000D02*
D03*
D15*
X9540000Y9100000D02*
D03*
X9870000D02*
D03*
X10180000Y7800000D02*
D03*
X10280000Y6900000D02*
D03*
X10180000Y7950000D02*
D03*
X9770000Y9100000D02*
D03*
X9640000D02*
D03*
X10180000Y6900000D02*
D03*
X10280000Y7800000D02*
D03*
Y7950000D02*
D03*
D16*
X9425000Y8500000D02*
D03*
X9975000Y7820000D02*
D03*
X9925000D02*
D03*
X9475000Y8500000D02*
D03*
X9525000D02*
D03*
X9575000D02*
D03*
X9625000D02*
D03*
X9675000D02*
D03*
X9725000D02*
D03*
X9775000D02*
D03*
X9825000D02*
D03*
X9875000D02*
D03*
X9925000D02*
D03*
X9975000D02*
D03*
X9875000Y7820000D02*
D03*
X9825000D02*
D03*
X9775000D02*
D03*
X9725000D02*
D03*
X9675000D02*
D03*
X9625000D02*
D03*
X9575000D02*
D03*
X9525000D02*
D03*
X9475000D02*
D03*
X9425000D02*
D03*
D17*
X10720000Y7649500D02*
D03*
X10949000D02*
D03*
X10491000D02*
D03*
D18*
X10720000Y6990500D02*
D03*
D19*
X10185000Y7120000D02*
D03*
Y7020000D02*
D03*
D20*
X10590000Y6800000D02*
D03*
X10440000D02*
D03*
X9700000Y7650000D02*
D03*
X9850000D02*
D03*
D21*
X10053000D02*
D03*
X9402000Y8650000D02*
D03*
X8908999Y8685000D02*
D03*
X10341000Y9280000D02*
D03*
X9975000Y7650000D02*
D03*
X9480000Y8650000D02*
D03*
X8830999Y8685000D02*
D03*
X8621000Y7960000D02*
D03*
X8900000D02*
D03*
X8699000D02*
D03*
X10419000Y9280000D02*
D03*
X8822000Y7960000D02*
D03*
D22*
X8894999Y8810000D02*
D03*
X9144999Y9210000D02*
D03*
Y8810000D02*
D03*
X8944999D02*
D03*
X8995000D02*
D03*
X9044999D02*
D03*
X9095000D02*
D03*
X8894999Y9210000D02*
D03*
X8944999D02*
D03*
X8995000D02*
D03*
X9044999D02*
D03*
X9095000D02*
D03*
D23*
X8822499Y9085000D02*
D03*
Y8935000D02*
D03*
Y9035000D02*
D03*
Y8885000D02*
D03*
X9217499Y9085000D02*
D03*
Y9135000D02*
D03*
Y8885000D02*
D03*
Y8935000D02*
D03*
Y8985000D02*
D03*
Y9035000D02*
D03*
X8822499Y8985000D02*
D03*
Y9135000D02*
D03*
D24*
X9075000Y8450000D02*
D03*
X10570000Y7805000D02*
D03*
X10750000Y7800000D02*
D03*
X10270000Y7515000D02*
D03*
X9075000Y8300000D02*
D03*
X10750000Y7950000D02*
D03*
X10270000Y7665000D02*
D03*
X10570000Y7955000D02*
D03*
D25*
X9062500Y7162500D02*
D03*
X9687500D02*
D03*
X9312500D02*
D03*
X9562500D02*
D03*
X9187500D02*
D03*
X9437500D02*
D03*
D26*
X11050000Y8430000D02*
D03*
Y8235000D02*
D03*
Y8300000D02*
D03*
Y8365000D02*
D03*
Y8170000D02*
D03*
D27*
X9610000Y8990000D02*
D03*
Y8890000D02*
D03*
D28*
X9019999Y9010000D02*
D03*
D29*
X9700000Y8160000D02*
D03*
D30*
X8835000Y7670000D02*
D03*
X8670000Y7795000D02*
D03*
Y7670000D02*
D03*
X8835000Y7795000D02*
D03*
D31*
X11058500Y8548750D02*
D03*
Y8051250D02*
D03*
D32*
X11316000Y8455000D02*
D03*
D33*
Y8185000D02*
D03*
D34*
Y8637500D02*
D03*
Y7962500D02*
D03*
D35*
X10577500Y8110000D02*
D03*
X10742500D02*
D03*
D36*
X9872500Y6842500D02*
D03*
X8877500D02*
D03*
D37*
X10620000Y8450000D02*
Y8550000D01*
X10910000Y8840000D01*
X9320000Y9080000D02*
X9400000D01*
X9440000Y9320000D02*
Y9400000D01*
X9776065D01*
X8820000D02*
X9440000D01*
X10380000Y8630000D02*
X10450000D01*
X10910000Y8840000D02*
Y9160000D01*
X11310000Y7610000D02*
Y7710000D01*
X11080000Y7380000D02*
X11310000Y7610000D01*
X9776065Y9400000D02*
X9870000Y9306065D01*
X8800000Y9380000D02*
X8820000Y9400000D01*
X8730000Y9310000D02*
X8770000Y9350000D01*
Y9350000D01*
X9870000Y9250000D02*
Y9306065D01*
X8400000Y8990000D02*
X8500000Y9090000D01*
X8530000Y8570000D02*
X8590000Y8630000D01*
X8710000Y8460000D02*
X8930000D01*
X10050000Y7110000D02*
Y7450000D01*
X10207574Y7247574D02*
X10230000Y7270000D01*
X10350000D01*
D38*
X9357499Y9200000D02*
X9520000D01*
X8700000Y8541716D02*
X8711716Y8530000D01*
X9130000D02*
X9420000Y8820000D01*
X8711716Y8530000D02*
X9130000D01*
X9600000Y9260000D02*
X9640000Y9220000D01*
X9367499Y9260000D02*
X9600000D01*
X9242499Y9135000D02*
X9367499Y9260000D01*
X9770000Y9100000D02*
Y9200000D01*
Y9100000D02*
X9790000Y9080000D01*
Y9040000D02*
Y9080000D01*
Y9040000D02*
X9870000Y8960000D01*
Y8718284D02*
Y8960000D01*
X9665000Y9075000D02*
X9780000Y8960000D01*
X9200000Y7960000D02*
X9210000Y7970000D01*
X9200000Y7590000D02*
Y7960000D01*
X9062500Y7452500D02*
X9200000Y7590000D01*
X9062500Y7162500D02*
Y7452500D01*
X9080000Y8080000D02*
X9135000Y8135000D01*
X9080000Y8030000D02*
Y8080000D01*
X9125000Y8185000D02*
X9360000D01*
X9050000Y8110000D02*
X9125000Y8185000D01*
X9135000Y8135000D02*
X9360000D01*
X8700000Y7961000D02*
Y8250000D01*
X8930000Y8110000D02*
X9050000D01*
X9420000Y8820000D02*
X9563284D01*
X9575000Y8808284D01*
Y8500000D02*
Y8808284D01*
X8970000Y8250000D02*
Y8288284D01*
X8750000Y8300000D02*
X8958284D01*
X8970000Y8288284D01*
X8700000Y8541716D02*
Y8787501D01*
X8797500Y8885000D01*
X8738284Y7678284D02*
X8750000Y7690000D01*
Y7834861D01*
X8670000Y7670000D02*
X8678284Y7678284D01*
X8738284D01*
X8699000Y7885861D02*
X8750000Y7834861D01*
X9175000Y8235000D02*
X9360000D01*
X9150000Y8210000D02*
X9175000Y8235000D01*
X8970000Y8250000D02*
X9010000Y8210000D01*
X9150000D01*
X8700000Y8250000D02*
X8750000Y8300000D01*
X8699000Y7960000D02*
X8700000Y7961000D01*
X8699000Y7885861D02*
Y7960000D01*
X10455000Y8825000D02*
Y8928000D01*
X10270000Y8640000D02*
X10455000Y8825000D01*
X10020000Y8640000D02*
X10270000D01*
X9975000Y8595000D02*
X10020000Y8640000D01*
X9975000Y8500000D02*
Y8595000D01*
X9310000Y7165000D02*
X9312500Y7162500D01*
X9310000Y7165000D02*
Y7520000D01*
X9525000Y7735000D01*
Y7820000D01*
X9875000Y8500000D02*
Y8588431D01*
X9978284Y8691716D01*
X9980000Y8690000D01*
X10091408D01*
X10328000Y8926591D01*
Y8928000D01*
X9570000Y7630000D02*
X9625000Y7685000D01*
X9570000Y7170000D02*
Y7630000D01*
X9625000Y7685000D02*
Y7820000D01*
X9562500Y7162500D02*
X9570000Y7170000D01*
X9187500Y7162500D02*
Y7467500D01*
X9475000Y7755000D01*
Y7820000D01*
X8797500Y8885000D02*
X8822499D01*
X10407284Y9410000D02*
X10419000Y9398284D01*
Y9280000D02*
X10530000D01*
X10419000D02*
Y9398284D01*
X10330000Y9410000D02*
X10407284D01*
X10455000Y9055000D02*
Y9246000D01*
X10421000Y9280000D02*
X10455000Y9246000D01*
X9437500Y7162500D02*
Y7577500D01*
X9575000Y7715000D01*
Y7820000D01*
X9610000Y8890000D02*
X9625000Y8875000D01*
Y8500000D02*
Y8875000D01*
X9725000Y8573284D02*
X9870000Y8718284D01*
X9725000Y8500000D02*
Y8573284D01*
X9242499Y9085000D02*
X9357499Y9200000D01*
X9217499Y9085000D02*
X9242499D01*
X9640000Y9100000D02*
Y9220000D01*
X9660000Y9075000D02*
X9665000D01*
X9640000Y9095000D02*
X9660000Y9075000D01*
X9780000Y8710000D02*
Y8960000D01*
X9675000Y8605000D02*
X9780000Y8710000D01*
X9675000Y8500000D02*
Y8605000D01*
X9217499Y9135000D02*
X9242499D01*
X10182500Y7017500D02*
X10185000Y7020000D01*
X10182500Y6902500D02*
Y7017500D01*
X10180000Y6900000D02*
X10182500Y6902500D01*
X8822000Y7808000D02*
X8835000Y7795000D01*
X8822000Y7808000D02*
Y7960000D01*
X8826000Y7964000D01*
Y8106000D01*
X8830000Y8110000D01*
D39*
X9217499Y8935000D02*
X9220000Y8937500D01*
X9277500D01*
X9305000Y8965000D01*
X9338000D01*
X9350000Y8977000D01*
Y8979000D01*
X9200000Y8442000D02*
X9206999Y8435000D01*
X9200000Y8442000D02*
Y8550000D01*
X9300000Y8650000D01*
X9402000D01*
X8684999Y9264999D02*
X8730000Y9310000D01*
X8684999Y9163000D02*
Y9264999D01*
X8500000Y9090000D02*
X8520000Y9110000D01*
X8570000D01*
X8623000Y9163000D01*
X8684999D01*
X8590000Y8630000D02*
X8640000Y8680000D01*
X9017500Y8682500D02*
X9020000Y8680000D01*
X8911500Y8682500D02*
X9017500D01*
X8908999Y8685000D02*
X8911500Y8682500D01*
X10050000Y7450000D02*
Y7647000D01*
X10053000Y7650000D01*
X9210000Y8050000D02*
X9222000Y8062000D01*
X9252000D01*
X9275000Y8085000D01*
X9973913Y7650000D02*
X9975000D01*
X9973000D02*
X9973913D01*
X9210000Y7970000D02*
X9250000D01*
X10118000Y8488000D02*
X10200000D01*
X10110000Y8480000D02*
X10118000Y8488000D01*
X9402000Y8545501D02*
Y8650000D01*
X9975000Y7797500D02*
Y7820000D01*
X9425000Y8500000D02*
Y8522501D01*
X10575893Y7025715D02*
Y7184107D01*
X10611108Y6990500D02*
X10720000D01*
X10575893Y7025715D02*
X10611108Y6990500D01*
X10050000Y7720000D02*
Y7722500D01*
Y7720000D02*
X10053000Y7717000D01*
Y7650000D02*
Y7717000D01*
X8894999Y8787500D02*
X8908999Y8773500D01*
X8894999Y8787500D02*
Y8810000D01*
X8908999Y8685000D02*
Y8773500D01*
X9402000Y8545501D02*
X9425000Y8522501D01*
X8696999Y9149000D02*
X8726568D01*
X8684999Y9161000D02*
X8696999Y9149000D01*
X8726568D02*
X8773576Y9101992D01*
X8797500Y9085000D02*
X8822499D01*
X8773576Y9101992D02*
X8780508D01*
X8797500Y9085000D01*
X9335000Y8035000D02*
X9360000D01*
X10130000Y8410000D02*
X10200000D01*
X9961000Y7662000D02*
X9973000Y7650000D01*
X9925000Y7745000D02*
X9961000Y7709000D01*
Y7662000D02*
Y7709000D01*
X9480000Y8650000D02*
Y8750000D01*
X9475000Y8522501D02*
X9480000Y8527501D01*
Y8650000D01*
X8711999Y8935000D02*
X8822499D01*
X8684999Y8908000D02*
X8711999Y8935000D01*
X9475000Y8500000D02*
Y8522501D01*
X9850000Y7650000D02*
Y7730000D01*
X9870000Y7750000D01*
X8684999Y8984000D02*
X8685499Y8984500D01*
X8822000D01*
X8822499Y8985000D01*
D40*
X10300000Y8340000D02*
X10582000Y8622000D01*
Y8928000D01*
X10050000Y8340000D02*
X10300000D01*
X10110000Y8477500D02*
Y8480000D01*
X10067500Y8435000D02*
X10110000Y8477500D01*
X10040000Y8435000D02*
X10067500D01*
X9206999D02*
X9360000D01*
X10105000Y8385000D02*
X10130000Y8410000D01*
X10040000Y8385000D02*
X10105000D01*
X10180000Y7795000D02*
Y7800000D01*
X10170000Y7520000D02*
X10265000D01*
X10270000Y7515000D01*
X10430000Y6790000D02*
X10440000Y6800000D01*
X10300000Y6790000D02*
X10430000D01*
X10280000Y6810000D02*
X10300000Y6790000D01*
X10280000Y6810000D02*
Y6900000D01*
X10120000Y7735000D02*
X10180000Y7795000D01*
X10120000Y7570000D02*
Y7735000D01*
Y7570000D02*
X10170000Y7520000D01*
X10067499Y7935000D02*
X10067500Y7935001D01*
X10082145Y7950000D02*
X10180000D01*
X10040000Y7935000D02*
X10067499D01*
X10067500Y7935001D02*
Y7935355D01*
X10082145Y7950000D01*
X9870000Y7750000D02*
X9875000Y7755000D01*
Y7820000D01*
X10045000Y8335000D02*
X10050000Y8340000D01*
X10040000Y8335000D02*
X10045000D01*
D41*
X10805000Y7380000D02*
X11080000D01*
X10720000Y7465000D02*
X10805000Y7380000D01*
X10720000Y7465000D02*
Y7649500D01*
X8770000Y9350000D02*
X8800000Y9380000D01*
X8400000Y8450000D02*
Y8990000D01*
Y8450000D02*
X8410000D01*
X8530000Y8570000D01*
X8400000Y8450000D02*
X8410000Y8460000D01*
X8710000D01*
X10020000Y6840000D02*
X10050000Y6870000D01*
Y7110000D01*
X10350000Y7270000D02*
X10490000D01*
X10575893Y7184107D01*
X8400000Y7540000D02*
Y8450000D01*
Y7540000D02*
X8720000Y7220000D01*
Y6840000D02*
Y7220000D01*
X9010000Y6840000D02*
X9750000D01*
X10020000Y6830000D02*
Y6840000D01*
Y6830000D02*
X10170000Y6680000D01*
X10531421D01*
X10590000Y6738579D01*
Y6800000D01*
D42*
X9250000Y7970000D02*
X9315000Y8035000D01*
X9975000Y7797500D02*
X10050000Y7722500D01*
X9315000Y8035000D02*
X9335000D01*
X9925000Y7745000D02*
Y7820000D01*
X9275000Y8085000D02*
X9360000D01*
D43*
X10559823Y8236784D02*
X10567323Y8244284D01*
X11040716D01*
X10068173Y8236784D02*
X10559823D01*
X10040000Y8235000D02*
X10066389D01*
X10068173Y8236784D01*
X11040716Y8244284D02*
X11050000Y8235000D01*
X11040716Y8290715D02*
X11050000Y8300000D01*
X10040000Y8285000D02*
X10066389D01*
X10068173Y8283216D01*
X10540591D02*
X10548091Y8290715D01*
X10068173Y8283216D02*
X10540591D01*
X10548091Y8290715D02*
X11040716D01*
D44*
X11350000Y9040000D02*
D03*
X8400000Y7050000D02*
D03*
D45*
X8510000Y9290000D02*
D03*
X8520000Y6820000D02*
D03*
X11230000Y6810000D02*
D03*
Y9290000D02*
D03*
D46*
X10709000Y8991500D02*
D03*
X10201000Y8889900D02*
D03*
Y9093100D02*
D03*
D47*
X10620000Y8450000D02*
D03*
X9320000Y9080000D02*
D03*
X9440000Y9320000D02*
D03*
X9270000Y9310000D02*
D03*
X10450000Y8630000D02*
D03*
X10340000Y8510000D02*
D03*
X11310000Y7710000D02*
D03*
X10880000Y8430000D02*
D03*
X8830000Y8590000D02*
D03*
X8560000Y8910000D02*
D03*
Y9020000D02*
D03*
X8640000Y8680000D02*
D03*
X9020000D02*
D03*
X8980000Y7870000D02*
D03*
X8720000Y6840000D02*
D03*
X9010000D02*
D03*
X9750000D02*
D03*
X10020000D02*
D03*
X9090000Y7900000D02*
D03*
X10240000Y9280000D02*
D03*
X10950000Y7790000D02*
D03*
X10320000Y7010000D02*
D03*
X10270000Y7400000D02*
D03*
X9970000Y7490000D02*
D03*
X9690000Y7350000D02*
D03*
X9460000Y8990000D02*
D03*
Y8900000D02*
D03*
X9480000Y8750000D02*
D03*
X9140000Y8700000D02*
D03*
X8950000Y8370000D02*
D03*
X8510000Y7960000D02*
D03*
X8970000Y7670000D02*
D03*
X8530000Y7800000D02*
D03*
D48*
X9920000Y8380000D02*
D03*
Y8270000D02*
D03*
X9810000D02*
D03*
X9700000Y8380000D02*
D03*
X9810000D02*
D03*
X9700000Y8160000D02*
D03*
Y8270000D02*
D03*
X9920000Y8050000D02*
D03*
Y7940000D02*
D03*
Y8160000D02*
D03*
X9810000D02*
D03*
Y8050000D02*
D03*
X9700000D02*
D03*
X9810000Y7940000D02*
D03*
X9700000D02*
D03*
X9074999Y9065000D02*
D03*
Y8955000D02*
D03*
X8965000Y9065000D02*
D03*
Y8955000D02*
D03*
X9590000Y8380000D02*
D03*
Y8270000D02*
D03*
Y8160000D02*
D03*
X9480000D02*
D03*
Y8380000D02*
D03*
Y8270000D02*
D03*
Y8050000D02*
D03*
X9590000D02*
D03*
Y7940000D02*
D03*
X9480000D02*
D03*
D49*
X9080000Y8030000D02*
D03*
X10330000Y9410000D02*
D03*
X9770000Y9200000D02*
D03*
X9520000D02*
D03*
%TF.MD5,8a5dded1ab144a74c0b58f240cc63a3c*%
M02*
