%TF.GenerationSoftware,Altium Limited,Altium Designer,26.1.1 (7)*%
G04 Layer_Color=2752767*
%FSLAX45Y45*%
%MOMM*%
%TF.SameCoordinates,E435DE63-49F9-4575-A18B-2E203A751929*%
%TF.FilePolarity,Positive*%
%TF.FileFunction,Drawing*%
%TF.Part,Single*%
G01*
G75*
%TA.AperFunction,NonConductor*%
%ADD53C,0.12700*%
%ADD92C,0.16933*%
D53*
X11299200Y8989200D02*
Y9090800D01*
X11400800D01*
Y8989200D01*
X11299200D01*
X8349200Y6999200D02*
Y7100800D01*
X8450800D01*
Y6999200D01*
X8349200D01*
X8510000Y9239200D02*
X8459200Y9340800D01*
X8560800D01*
X8510000Y9239200D01*
X8520000Y6769200D02*
X8469200Y6870800D01*
X8570800D01*
X8520000Y6769200D01*
X10658200Y8940700D02*
Y9042300D01*
X10759800D01*
Y8940700D01*
X10658200D01*
X10150200Y8839100D02*
Y8940700D01*
X10251800D01*
Y8839100D01*
X10150200D01*
Y9042300D02*
Y9143900D01*
X10251800D01*
Y9042300D01*
X10150200D01*
X11230000Y6759200D02*
X11179200Y6860800D01*
X11280800D01*
X11230000Y6759200D01*
Y9239200D02*
X11179200Y9340800D01*
X11280800D01*
X11230000Y9239200D01*
X10569200Y8399200D02*
X10594600Y8450000D01*
X10569200Y8500800D01*
X10620000Y8475400D01*
X10670800Y8500800D01*
X10645400Y8450000D01*
X10670800Y8399200D01*
X10620000Y8424600D01*
X10569200Y8399200D01*
X9269200Y9029200D02*
X9294600Y9080000D01*
X9269200Y9130800D01*
X9320000Y9105400D01*
X9370800Y9130800D01*
X9345400Y9080000D01*
X9370800Y9029200D01*
X9320000Y9054600D01*
X9269200Y9029200D01*
X9389200Y9269200D02*
X9414600Y9320000D01*
X9389200Y9370800D01*
X9440000Y9345400D01*
X9490800Y9370800D01*
X9465400Y9320000D01*
X9490800Y9269200D01*
X9440000Y9294600D01*
X9389200Y9269200D01*
X9219200Y9259200D02*
X9244600Y9310000D01*
X9219200Y9360800D01*
X9270000Y9335400D01*
X9320800Y9360800D01*
X9295400Y9310000D01*
X9320800Y9259200D01*
X9270000Y9284600D01*
X9219200Y9259200D01*
X10399200Y8579200D02*
X10424600Y8630000D01*
X10399200Y8680800D01*
X10450000Y8655400D01*
X10500800Y8680800D01*
X10475400Y8630000D01*
X10500800Y8579200D01*
X10450000Y8604600D01*
X10399200Y8579200D01*
X10289200Y8459200D02*
X10314600Y8510000D01*
X10289200Y8560800D01*
X10340000Y8535400D01*
X10390800Y8560800D01*
X10365400Y8510000D01*
X10390800Y8459200D01*
X10340000Y8484600D01*
X10289200Y8459200D01*
X11259200Y7659200D02*
X11284600Y7710000D01*
X11259200Y7760800D01*
X11310000Y7735400D01*
X11360800Y7760800D01*
X11335400Y7710000D01*
X11360800Y7659200D01*
X11310000Y7684600D01*
X11259200Y7659200D01*
X10829200Y8379200D02*
X10854600Y8430000D01*
X10829200Y8480800D01*
X10880000Y8455400D01*
X10930800Y8480800D01*
X10905400Y8430000D01*
X10930800Y8379200D01*
X10880000Y8404600D01*
X10829200Y8379200D01*
X8779200Y8539200D02*
X8804600Y8590000D01*
X8779200Y8640800D01*
X8830000Y8615400D01*
X8880800Y8640800D01*
X8855400Y8590000D01*
X8880800Y8539200D01*
X8830000Y8564600D01*
X8779200Y8539200D01*
X8509200Y8859200D02*
X8534600Y8910000D01*
X8509200Y8960800D01*
X8560000Y8935400D01*
X8610800Y8960800D01*
X8585400Y8910000D01*
X8610800Y8859200D01*
X8560000Y8884600D01*
X8509200Y8859200D01*
Y8969200D02*
X8534600Y9020000D01*
X8509200Y9070800D01*
X8560000Y9045400D01*
X8610800Y9070800D01*
X8585400Y9020000D01*
X8610800Y8969200D01*
X8560000Y8994600D01*
X8509200Y8969200D01*
X8589200Y8629200D02*
X8614600Y8680000D01*
X8589200Y8730800D01*
X8640000Y8705400D01*
X8690800Y8730800D01*
X8665400Y8680000D01*
X8690800Y8629200D01*
X8640000Y8654600D01*
X8589200Y8629200D01*
X8969200D02*
X8994600Y8680000D01*
X8969200Y8730800D01*
X9020000Y8705400D01*
X9070800Y8730800D01*
X9045400Y8680000D01*
X9070800Y8629200D01*
X9020000Y8654600D01*
X8969200Y8629200D01*
X8929200Y7819200D02*
X8954600Y7870000D01*
X8929200Y7920800D01*
X8980000Y7895400D01*
X9030800Y7920800D01*
X9005400Y7870000D01*
X9030800Y7819200D01*
X8980000Y7844600D01*
X8929200Y7819200D01*
X8669200Y6789200D02*
X8694600Y6840000D01*
X8669200Y6890800D01*
X8720000Y6865400D01*
X8770800Y6890800D01*
X8745400Y6840000D01*
X8770800Y6789200D01*
X8720000Y6814600D01*
X8669200Y6789200D01*
X8959200D02*
X8984600Y6840000D01*
X8959200Y6890800D01*
X9010000Y6865400D01*
X9060800Y6890800D01*
X9035400Y6840000D01*
X9060800Y6789200D01*
X9010000Y6814600D01*
X8959200Y6789200D01*
X9699200D02*
X9724600Y6840000D01*
X9699200Y6890800D01*
X9750000Y6865400D01*
X9800800Y6890800D01*
X9775400Y6840000D01*
X9800800Y6789200D01*
X9750000Y6814600D01*
X9699200Y6789200D01*
X9969200D02*
X9994600Y6840000D01*
X9969200Y6890800D01*
X10020000Y6865400D01*
X10070800Y6890800D01*
X10045400Y6840000D01*
X10070800Y6789200D01*
X10020000Y6814600D01*
X9969200Y6789200D01*
X9039200Y7849200D02*
X9064600Y7900000D01*
X9039200Y7950800D01*
X9090000Y7925400D01*
X9140800Y7950800D01*
X9115400Y7900000D01*
X9140800Y7849200D01*
X9090000Y7874600D01*
X9039200Y7849200D01*
X10189200Y9229200D02*
X10214600Y9280000D01*
X10189200Y9330800D01*
X10240000Y9305400D01*
X10290800Y9330800D01*
X10265400Y9280000D01*
X10290800Y9229200D01*
X10240000Y9254600D01*
X10189200Y9229200D01*
X10899200Y7739200D02*
X10924600Y7790000D01*
X10899200Y7840800D01*
X10950000Y7815400D01*
X11000800Y7840800D01*
X10975400Y7790000D01*
X11000800Y7739200D01*
X10950000Y7764600D01*
X10899200Y7739200D01*
X10269200Y6959200D02*
X10294600Y7010000D01*
X10269200Y7060800D01*
X10320000Y7035400D01*
X10370800Y7060800D01*
X10345400Y7010000D01*
X10370800Y6959200D01*
X10320000Y6984600D01*
X10269200Y6959200D01*
X10219200Y7349200D02*
X10244600Y7400000D01*
X10219200Y7450800D01*
X10270000Y7425400D01*
X10320800Y7450800D01*
X10295400Y7400000D01*
X10320800Y7349200D01*
X10270000Y7374600D01*
X10219200Y7349200D01*
X9919200Y7439200D02*
X9944600Y7490000D01*
X9919200Y7540800D01*
X9970000Y7515400D01*
X10020800Y7540800D01*
X9995400Y7490000D01*
X10020800Y7439200D01*
X9970000Y7464600D01*
X9919200Y7439200D01*
X9639200Y7299200D02*
X9664600Y7350000D01*
X9639200Y7400800D01*
X9690000Y7375400D01*
X9740800Y7400800D01*
X9715400Y7350000D01*
X9740800Y7299200D01*
X9690000Y7324600D01*
X9639200Y7299200D01*
X9409200Y8939200D02*
X9434600Y8990000D01*
X9409200Y9040800D01*
X9460000Y9015400D01*
X9510800Y9040800D01*
X9485400Y8990000D01*
X9510800Y8939200D01*
X9460000Y8964600D01*
X9409200Y8939200D01*
Y8849200D02*
X9434600Y8900000D01*
X9409200Y8950800D01*
X9460000Y8925400D01*
X9510800Y8950800D01*
X9485400Y8900000D01*
X9510800Y8849200D01*
X9460000Y8874600D01*
X9409200Y8849200D01*
X9429200Y8699200D02*
X9454600Y8750000D01*
X9429200Y8800800D01*
X9480000Y8775400D01*
X9530800Y8800800D01*
X9505400Y8750000D01*
X9530800Y8699200D01*
X9480000Y8724600D01*
X9429200Y8699200D01*
X9089200Y8649200D02*
X9114600Y8700000D01*
X9089200Y8750800D01*
X9140000Y8725400D01*
X9190800Y8750800D01*
X9165400Y8700000D01*
X9190800Y8649200D01*
X9140000Y8674600D01*
X9089200Y8649200D01*
X8899200Y8319200D02*
X8924600Y8370000D01*
X8899200Y8420800D01*
X8950000Y8395400D01*
X9000800Y8420800D01*
X8975400Y8370000D01*
X9000800Y8319200D01*
X8950000Y8344600D01*
X8899200Y8319200D01*
X8459200Y7909200D02*
X8484600Y7960000D01*
X8459200Y8010800D01*
X8510000Y7985400D01*
X8560800Y8010800D01*
X8535400Y7960000D01*
X8560800Y7909200D01*
X8510000Y7934600D01*
X8459200Y7909200D01*
X8919200Y7619200D02*
X8944600Y7670000D01*
X8919200Y7720800D01*
X8970000Y7695400D01*
X9020800Y7720800D01*
X8995400Y7670000D01*
X9020800Y7619200D01*
X8970000Y7644600D01*
X8919200Y7619200D01*
X8479200Y7749200D02*
X8504600Y7800000D01*
X8479200Y7850800D01*
X8530000Y7825400D01*
X8580800Y7850800D01*
X8555400Y7800000D01*
X8580800Y7749200D01*
X8530000Y7774600D01*
X8479200Y7749200D01*
X9080000Y7979200D02*
X9105400Y8004600D01*
X9130800D01*
X9105400Y8030000D01*
X9130800Y8055400D01*
X9105400D01*
X9080000Y8080800D01*
X9054600Y8055400D01*
X9029200D01*
X9054600Y8030000D01*
X9029200Y8004600D01*
X9054600D01*
X9080000Y7979200D01*
X10330000Y9359200D02*
X10355400Y9384600D01*
X10380800D01*
X10355400Y9410000D01*
X10380800Y9435400D01*
X10355400D01*
X10330000Y9460800D01*
X10304600Y9435400D01*
X10279200D01*
X10304600Y9410000D01*
X10279200Y9384600D01*
X10304600D01*
X10330000Y9359200D01*
X9770000Y9149200D02*
X9795400Y9174600D01*
X9820800D01*
X9795400Y9200000D01*
X9820800Y9225400D01*
X9795400D01*
X9770000Y9250800D01*
X9744600Y9225400D01*
X9719200D01*
X9744600Y9200000D01*
X9719200Y9174600D01*
X9744600D01*
X9770000Y9149200D01*
X9520000D02*
X9545400Y9174600D01*
X9570800D01*
X9545400Y9200000D01*
X9570800Y9225400D01*
X9545400D01*
X9520000Y9250800D01*
X9494600Y9225400D01*
X9469200D01*
X9494600Y9200000D01*
X9469200Y9174600D01*
X9494600D01*
X9520000Y9149200D01*
D92*
X9970800Y8380000D02*
G03*
X9970800Y8380000I-50800J0D01*
G01*
Y8270000D02*
G03*
X9970800Y8270000I-50800J0D01*
G01*
X9860800D02*
G03*
X9860800Y8270000I-50800J0D01*
G01*
X9750800Y8380000D02*
G03*
X9750800Y8380000I-50800J0D01*
G01*
X9860800D02*
G03*
X9860800Y8380000I-50800J0D01*
G01*
X9750800Y8160000D02*
G03*
X9750800Y8160000I-50800J0D01*
G01*
Y8270000D02*
G03*
X9750800Y8270000I-50800J0D01*
G01*
X9970800Y8050000D02*
G03*
X9970800Y8050000I-50800J0D01*
G01*
Y7940000D02*
G03*
X9970800Y7940000I-50800J0D01*
G01*
Y8160000D02*
G03*
X9970800Y8160000I-50800J0D01*
G01*
X9860800D02*
G03*
X9860800Y8160000I-50800J0D01*
G01*
Y8050000D02*
G03*
X9860800Y8050000I-50800J0D01*
G01*
X9750800D02*
G03*
X9750800Y8050000I-50800J0D01*
G01*
X9860800Y7940000D02*
G03*
X9860800Y7940000I-50800J0D01*
G01*
X9750800D02*
G03*
X9750800Y7940000I-50800J0D01*
G01*
X9125799Y9065000D02*
G03*
X9125799Y9065000I-50800J0D01*
G01*
Y8955000D02*
G03*
X9125799Y8955000I-50800J0D01*
G01*
X9015800Y9065000D02*
G03*
X9015800Y9065000I-50800J0D01*
G01*
Y8955000D02*
G03*
X9015800Y8955000I-50800J0D01*
G01*
X9640800Y8380000D02*
G03*
X9640800Y8380000I-50800J0D01*
G01*
Y8270000D02*
G03*
X9640800Y8270000I-50800J0D01*
G01*
Y8160000D02*
G03*
X9640800Y8160000I-50800J0D01*
G01*
X9530800D02*
G03*
X9530800Y8160000I-50800J0D01*
G01*
Y8380000D02*
G03*
X9530800Y8380000I-50800J0D01*
G01*
Y8270000D02*
G03*
X9530800Y8270000I-50800J0D01*
G01*
Y8050000D02*
G03*
X9530800Y8050000I-50800J0D01*
G01*
X9640800D02*
G03*
X9640800Y8050000I-50800J0D01*
G01*
Y7940000D02*
G03*
X9640800Y7940000I-50800J0D01*
G01*
X9530800D02*
G03*
X9530800Y7940000I-50800J0D01*
G01*
%TF.MD5,f784328d42b4f7761c7b3dd7caf25197*%
M02*
