%TF.GenerationSoftware,Altium Limited,Altium Designer,26.1.1 (7)*%
G04 Layer_Color=32768*
%FSLAX45Y45*%
%MOMM*%
%TF.SameCoordinates,E435DE63-49F9-4575-A18B-2E203A751929*%
%TF.FilePolarity,Positive*%
%TF.FileFunction,Other,Top_Courtyard*%
%TF.Part,Single*%
G01*
G75*
%TA.AperFunction,NonConductor*%
%ADD51C,0.20000*%
%ADD76C,0.10000*%
%ADD79C,0.05000*%
D51*
X10384750Y7709715D02*
X11055250D01*
X10384750Y6930285D02*
Y7709715D01*
Y6930285D02*
X11055250D01*
Y7709715D01*
X10936000Y7870000D02*
X11529000D01*
Y8730000D01*
X10936000D02*
X11529000D01*
X10936000Y7870000D02*
Y8730000D01*
X10494999Y9240000D02*
Y9320000D01*
Y9240000D02*
X10664999D01*
Y9320000D01*
X10494999D02*
X10664999D01*
X9570000Y9025000D02*
X9650000D01*
X9570000Y8855000D02*
Y9025000D01*
Y8855000D02*
X9650000D01*
Y9025000D01*
X8965000Y8070000D02*
Y8150000D01*
X8795000D02*
X8965000D01*
X8795000Y8070000D02*
Y8150000D01*
Y8070000D02*
X8965000D01*
X8605000Y7610000D02*
Y7855000D01*
Y7610000D02*
X8900000D01*
Y7855000D01*
X8605000D02*
X8900000D01*
D76*
X9180000Y8009000D02*
X9240000D01*
X9210000Y7979000D02*
Y8039000D01*
X9700000Y8110000D02*
Y8210000D01*
X9650000Y8160000D02*
X9750000D01*
X8970000Y9010000D02*
X9069999D01*
X9019999Y8960000D02*
Y9060000D01*
X9320000Y8940000D02*
X9380000D01*
X9350000Y8910000D02*
Y8970000D01*
X8869999Y8655000D02*
Y8715000D01*
X8839999Y8685000D02*
X8899999D01*
X8654999Y9124000D02*
X8714999D01*
X8684999Y9094000D02*
Y9154000D01*
X8654999Y8945000D02*
X8714999D01*
X8684999Y8915000D02*
Y8975000D01*
X10380000Y9250000D02*
Y9310000D01*
X10350000Y9280000D02*
X10410000D01*
X9441000Y8620000D02*
Y8680000D01*
X9411000Y8650000D02*
X9471000D01*
X8861000Y7930000D02*
Y7990000D01*
X8831000Y7960000D02*
X8891000D01*
X8660000Y7930000D02*
Y7990000D01*
X8630000Y7960000D02*
X8690000D01*
X10014000Y7620000D02*
Y7680000D01*
X9984000Y7650000D02*
X10044000D01*
X10170000Y8449000D02*
X10230000D01*
X10200000Y8419000D02*
Y8479000D01*
X9170000Y8389000D02*
X9230000D01*
X9200000Y8359000D02*
Y8419000D01*
D79*
X9170000Y7929000D02*
Y8089000D01*
X9250000Y7929000D02*
Y8089000D01*
X9170000Y7929000D02*
X9250000D01*
X9170000Y8089000D02*
X9250000D01*
X9310000Y7770000D02*
X10090000D01*
X9310000Y8550000D02*
X10090000D01*
Y7770000D02*
Y8550000D01*
X9310000Y7770000D02*
Y8550000D01*
X8769999Y9260000D02*
X9269999D01*
X8769999Y8760000D02*
Y9260000D01*
Y8760000D02*
X9269999D01*
Y9260000D01*
X9390000Y8860000D02*
Y9020000D01*
X9310000Y8860000D02*
Y9020000D01*
X9390000D01*
X9310000Y8860000D02*
X9390000D01*
X8789999Y8645000D02*
X8949999D01*
X8789999Y8725000D02*
X8949999D01*
Y8645000D02*
Y8725000D01*
X8789999Y8645000D02*
Y8725000D01*
X8725000Y9044000D02*
Y9204000D01*
X8644999Y9044000D02*
Y9204000D01*
X8725000D01*
X8644999Y9044000D02*
X8725000D01*
Y8865000D02*
Y9025000D01*
X8644999Y8865000D02*
Y9025000D01*
X8725000D01*
X8644999Y8865000D02*
X8725000D01*
X10300000Y9240000D02*
X10460000D01*
X10300000Y9320000D02*
X10460000D01*
Y9240000D02*
Y9320000D01*
X10300000Y9240000D02*
Y9320000D01*
X9361000Y8690000D02*
X9521000D01*
X9361000Y8610000D02*
X9521000D01*
X9361000D02*
Y8690000D01*
X9521000Y8610000D02*
Y8690000D01*
X8781000Y8000000D02*
X8941000D01*
X8781000Y7920000D02*
X8941000D01*
X8781000D02*
Y8000000D01*
X8941000Y7920000D02*
Y8000000D01*
X8580000D02*
X8740000D01*
X8580000Y7920000D02*
X8740000D01*
X8580000D02*
Y8000000D01*
X8740000Y7920000D02*
Y8000000D01*
X10815000Y7740000D02*
Y8010000D01*
X10685000Y7740000D02*
X10815000D01*
X10685000D02*
Y8010000D01*
X10815000D01*
X10510000Y8040000D02*
X10810000D01*
X10510000D02*
Y8180000D01*
X10810000D01*
Y8040000D02*
Y8180000D01*
X10335000Y7455000D02*
Y7725000D01*
X10205000Y7455000D02*
X10335000D01*
X10205000D02*
Y7725000D01*
X10335000D01*
X10635000Y7745000D02*
Y8015000D01*
X10505000Y7745000D02*
X10635000D01*
X10505000D02*
Y8015000D01*
X10635000D01*
X10380000Y6735000D02*
X10650000D01*
X10380000D02*
Y6865000D01*
X10650000D01*
Y6735000D02*
Y6865000D01*
X9934000Y7610000D02*
X10094000D01*
X9934000Y7690000D02*
X10094000D01*
Y7610000D02*
Y7690000D01*
X9934000Y7610000D02*
Y7690000D01*
X10240000Y8369000D02*
Y8529000D01*
X10160000Y8369000D02*
Y8529000D01*
X10240000D01*
X10160000Y8369000D02*
X10240000D01*
X8802500Y6682500D02*
Y7272500D01*
Y6682500D02*
X9947500D01*
Y7272500D01*
X8802500D02*
X9947500D01*
X9640000Y7585000D02*
X9910000D01*
X9640000D02*
Y7715000D01*
X9910000D01*
Y7585000D02*
Y7715000D01*
X9240000Y8309000D02*
Y8469000D01*
X9160000Y8309000D02*
Y8469000D01*
X9240000D01*
X9160000Y8309000D02*
X9240000D01*
X9140000Y8240000D02*
Y8510000D01*
X9010000Y8240000D02*
X9140000D01*
X9010000D02*
Y8510000D01*
X9140000D01*
%TF.MD5,254c3773fb9246a977551f4394471eed*%
M02*
