%TF.GenerationSoftware,Altium Limited,Altium Designer,26.1.1 (7)*%
G04 Layer_Color=16711935*
%FSLAX45Y45*%
%MOMM*%
%TF.SameCoordinates,E435DE63-49F9-4575-A18B-2E203A751929*%
%TF.FilePolarity,Positive*%
%TF.FileFunction,Other,Top_3D_Body*%
%TF.Part,Single*%
G01*
G75*
%TA.AperFunction,NonConductor*%
%ADD51C,0.20000*%
%ADD52C,0.17500*%
%ADD53C,0.12700*%
%ADD76C,0.10000*%
%ADD77C,0.25400*%
%ADD78C,0.15000*%
D51*
X9072500Y7300000D02*
G03*
X9072500Y7300000I-10000J0D01*
G01*
X10394750Y7495250D02*
X11045250D01*
X10394750Y7144750D02*
Y7495250D01*
Y7144750D02*
X11045250D01*
Y7495250D01*
X11461000Y7870000D02*
Y8730000D01*
X10946000Y7895500D02*
X11519000D01*
Y8704500D01*
X10946000D02*
X11519000D01*
X10946000Y7895500D02*
Y8704500D01*
X10527499Y9252500D02*
Y9307500D01*
Y9252500D02*
X10632499D01*
Y9307500D01*
X10527499D02*
X10632499D01*
X9582500Y8992500D02*
X9637500D01*
X9582500Y8887500D02*
Y8992500D01*
Y8887500D02*
X9637500D01*
Y8992500D01*
X8932500Y8082500D02*
Y8137500D01*
X8827500D02*
X8932500D01*
X8827500Y8082500D02*
Y8137500D01*
Y8082500D02*
X8932500D01*
X8620000Y7625000D02*
Y7840000D01*
Y7625000D02*
X8885000D01*
Y7840000D01*
X8620000D02*
X8885000D01*
D52*
X10105000Y8801500D02*
X10805000D01*
X10105000D02*
Y9181500D01*
X10805000D01*
Y8801500D02*
Y9181500D01*
X9705000Y9030000D02*
Y9170000D01*
X9475000Y9030000D02*
X9705000D01*
X9475000D02*
Y9170000D01*
X9705000D01*
X9705000Y9030000D02*
Y9170000D01*
X9935000D01*
Y9030000D02*
Y9170000D01*
X9705000Y9030000D02*
X9935000D01*
X10115000Y6955000D02*
Y7185000D01*
Y6955000D02*
X10255000D01*
Y7185000D01*
X10115000D02*
X10255000D01*
X10345000Y6830000D02*
Y6970000D01*
X10115000Y6830000D02*
X10345000D01*
X10115000D02*
Y6970000D01*
X10345000D01*
X10115000Y7730000D02*
Y7870000D01*
X10345000D01*
Y7730000D02*
Y7870000D01*
X10115000Y7730000D02*
X10345000D01*
X10115000Y7880000D02*
Y8020000D01*
X10345000D01*
Y7880000D02*
Y8020000D01*
X10115000Y7880000D02*
X10345000D01*
D53*
X8837500Y6732500D02*
Y7137500D01*
Y6732500D02*
X9912500D01*
Y7137500D01*
X8837500D02*
X9912500D01*
D76*
X9485000Y8425000D02*
G03*
X9485000Y8425000I-50000J0D01*
G01*
X9180000Y7954000D02*
Y8064000D01*
X9240000Y7954000D02*
Y8064000D01*
X9180000Y7954000D02*
X9240000D01*
X9180000Y8064000D02*
X9240000D01*
X9345000Y7805000D02*
X10055000D01*
X9345000Y8515000D02*
X10055000D01*
Y7805000D02*
Y8515000D01*
X9345000Y7805000D02*
Y8515000D01*
X8819999Y8810000D02*
X9220000D01*
X8819999D02*
Y9210000D01*
X9220000D01*
Y8810000D02*
Y9210000D01*
X9380000Y8885000D02*
Y8995000D01*
X9320000Y8885000D02*
Y8995000D01*
X9380000D01*
X9320000Y8885000D02*
X9380000D01*
X8814999Y8655000D02*
X8924999D01*
X8814999Y8715000D02*
X8924999D01*
Y8655000D02*
Y8715000D01*
X8814999Y8655000D02*
Y8715000D01*
X8714999Y9069000D02*
Y9179000D01*
X8654999Y9069000D02*
Y9179000D01*
X8714999D01*
X8654999Y9069000D02*
X8714999D01*
Y8890000D02*
Y9000000D01*
X8654999Y8890000D02*
Y9000000D01*
X8714999D01*
X8654999Y8890000D02*
X8714999D01*
X10325000Y9250000D02*
X10435000D01*
X10325000Y9310000D02*
X10435000D01*
Y9250000D02*
Y9310000D01*
X10325000Y9250000D02*
Y9310000D01*
X9386000Y8680000D02*
X9496000D01*
X9386000Y8620000D02*
X9496000D01*
X9386000D02*
Y8680000D01*
X9496000Y8620000D02*
Y8680000D01*
X8806000Y7990000D02*
X8916000D01*
X8806000Y7930000D02*
X8916000D01*
X8806000D02*
Y7990000D01*
X8916000Y7930000D02*
Y7990000D01*
X8605000D02*
X8715000D01*
X8605000Y7930000D02*
X8715000D01*
X8605000D02*
Y7990000D01*
X8715000Y7930000D02*
Y7990000D01*
X10790000Y7795000D02*
Y7955000D01*
X10710000Y7795000D02*
X10790000D01*
X10710000D02*
Y7955000D01*
X10790000D01*
X10580000Y8070000D02*
X10740000D01*
X10580000D02*
Y8150000D01*
X10740000D01*
Y8070000D02*
Y8150000D01*
X10310000Y7510000D02*
Y7670000D01*
X10230000Y7510000D02*
X10310000D01*
X10230000D02*
Y7670000D01*
X10310000D01*
X10610000Y7800000D02*
Y7960000D01*
X10530000Y7800000D02*
X10610000D01*
X10530000D02*
Y7960000D01*
X10610000D01*
X10435000Y6760000D02*
X10595000D01*
X10435000D02*
Y6840000D01*
X10595000D01*
Y6760000D02*
Y6840000D01*
X9959000Y7620000D02*
X10069000D01*
X9959000Y7680000D02*
X10069000D01*
Y7620000D02*
Y7680000D01*
X9959000Y7620000D02*
Y7680000D01*
X10230000Y8394000D02*
Y8504000D01*
X10170000Y8394000D02*
Y8504000D01*
X10230000D01*
X10170000Y8394000D02*
X10230000D01*
X9695000Y7610000D02*
X9855000D01*
X9695000D02*
Y7690000D01*
X9855000D01*
Y7610000D02*
Y7690000D01*
X9230000Y8334000D02*
Y8444000D01*
X9170000Y8334000D02*
Y8444000D01*
X9230000D01*
X9170000Y8334000D02*
X9230000D01*
X9115000Y8295000D02*
Y8455000D01*
X9035000Y8295000D02*
X9115000D01*
X9035000D02*
Y8455000D01*
X9115000D01*
X10073339Y8050000D02*
X10106661D01*
X10090000Y8066662D02*
Y8033339D01*
X10285000Y7226661D02*
Y7193339D01*
X10301662Y7210000D02*
X10268339D01*
D77*
X10480391Y8915325D02*
X10531175D01*
X10505783D01*
Y9042284D01*
X10531175Y9067676D01*
X10556567D01*
X10581959Y9042284D01*
X10328041Y9067676D02*
X10429608D01*
X10328041Y8966108D01*
Y8940717D01*
X10353432Y8915325D01*
X10404216D01*
X10429608Y8940717D01*
D78*
X9673307Y9149983D02*
Y9050016D01*
X9623323D01*
X9606662Y9066677D01*
Y9100000D01*
X9623323Y9116661D01*
X9673307D01*
X9639984D02*
X9606662Y9149983D01*
X9573339Y9066677D02*
X9556677Y9050016D01*
X9523355D01*
X9506694Y9066677D01*
Y9083338D01*
X9523355Y9100000D01*
X9540016D01*
X9523355D01*
X9506694Y9116661D01*
Y9133322D01*
X9523355Y9149983D01*
X9556677D01*
X9573339Y9133322D01*
X9736694Y9050016D02*
Y9149984D01*
X9786677D01*
X9803339Y9133323D01*
Y9100000D01*
X9786677Y9083339D01*
X9736694D01*
X9770016D02*
X9803339Y9050016D01*
X9903306D02*
X9836661D01*
X9903306Y9116661D01*
Y9133323D01*
X9886645Y9149984D01*
X9853323D01*
X9836661Y9133323D01*
X10247684Y7136645D02*
X10147716D01*
Y7086661D01*
X10164378Y7070000D01*
X10231023D01*
X10247684Y7086661D01*
Y7136645D01*
X10147716Y7036678D02*
Y7003355D01*
Y7020016D01*
X10247684D01*
X10231023Y7036678D01*
X10296645Y6949983D02*
Y6850016D01*
X10246661D01*
X10230000Y6866677D01*
Y6899999D01*
X10246661Y6916661D01*
X10296645D01*
X10263323D02*
X10230000Y6949983D01*
X10196677D02*
X10163355D01*
X10180016D01*
Y6850016D01*
X10196677Y6866677D01*
X10146693Y7750016D02*
Y7849984D01*
X10196677D01*
X10213338Y7833322D01*
Y7800000D01*
X10196677Y7783339D01*
X10146693D01*
X10180016D02*
X10213338Y7750016D01*
X10296645D02*
Y7849984D01*
X10246661Y7800000D01*
X10313306D01*
X10146693Y8012684D02*
Y7912716D01*
X10196677D01*
X10213338Y7929378D01*
Y7996023D01*
X10196677Y8012684D01*
X10146693D01*
X10313306Y7912716D02*
X10246661D01*
X10313306Y7979361D01*
Y7996023D01*
X10296645Y8012684D01*
X10263323D01*
X10246661Y7996023D01*
%TF.MD5,8b3946b38a55e0922832d0c4fc1f8ab5*%
M02*
