%TF.GenerationSoftware,Altium Limited,Altium Designer,26.1.1 (7)*%
G04 Layer_Color=32768*
%FSLAX45Y45*%
%MOMM*%
%TF.SameCoordinates,E435DE63-49F9-4575-A18B-2E203A751929*%
%TF.FilePolarity,Positive*%
%TF.FileFunction,Other,Top_Designator*%
%TF.Part,Single*%
G01*
G75*
%TA.AperFunction,NonConductor*%
%ADD76C,0.10000*%
D76*
X10776185Y7865240D02*
X10785707Y7870001D01*
X10795228Y7879522D01*
X10799989Y7889044D01*
Y7908088D01*
X10795228Y7917609D01*
X10785707Y7927131D01*
X10776185Y7931892D01*
X10761902Y7936653D01*
X10738098D01*
X10723815Y7931892D01*
X10714293Y7927131D01*
X10704772Y7917609D01*
X10700011Y7908088D01*
Y7889044D01*
X10704772Y7879522D01*
X10714293Y7870001D01*
X10723815Y7865240D01*
X10780946Y7837150D02*
X10785707Y7827629D01*
X10799989Y7813346D01*
X10700011D01*
X10753075Y8060011D02*
Y8159989D01*
Y8060011D02*
X10691184D01*
X10753075Y8107620D02*
X10714988D01*
X10679757Y8060011D02*
Y8159989D01*
Y8060011D02*
X10636909D01*
X10622627Y8064772D01*
X10617866Y8069533D01*
X10613105Y8079054D01*
Y8088576D01*
X10617866Y8098098D01*
X10622627Y8102859D01*
X10636909Y8107620D01*
X10679757D02*
X10636909D01*
X10622627Y8112380D01*
X10617866Y8117141D01*
X10613105Y8126663D01*
Y8140946D01*
X10617866Y8150468D01*
X10622627Y8155228D01*
X10636909Y8159989D01*
X10679757D01*
X10590729Y8079054D02*
X10581207Y8074293D01*
X10566925Y8060011D01*
Y8159989D01*
X10296185Y7604044D02*
X10305707Y7608805D01*
X10315229Y7618327D01*
X10319990Y7627849D01*
Y7646893D01*
X10315229Y7656414D01*
X10305707Y7665936D01*
X10296185Y7670697D01*
X10281902Y7675458D01*
X10258098D01*
X10243815Y7670697D01*
X10234293Y7665936D01*
X10224772Y7656414D01*
X10220011Y7646893D01*
Y7627849D01*
X10224772Y7618327D01*
X10234293Y7608805D01*
X10243815Y7604044D01*
X10319990Y7528346D02*
X10253337Y7575955D01*
Y7504542D01*
X10319990Y7528346D02*
X10220011D01*
X10596185Y7891664D02*
X10605707Y7896425D01*
X10615229Y7905947D01*
X10619990Y7915468D01*
Y7934512D01*
X10615229Y7944034D01*
X10605707Y7953556D01*
X10596185Y7958316D01*
X10581902Y7963077D01*
X10558098D01*
X10543815Y7958316D01*
X10534294Y7953556D01*
X10524772Y7944034D01*
X10520011Y7934512D01*
Y7915468D01*
X10524772Y7905947D01*
X10534294Y7896425D01*
X10543815Y7891664D01*
X10596185Y7858814D02*
X10600946D01*
X10610468Y7854053D01*
X10615229Y7849292D01*
X10619990Y7839770D01*
Y7820727D01*
X10615229Y7811205D01*
X10610468Y7806444D01*
X10600946Y7801683D01*
X10591424D01*
X10581902Y7806444D01*
X10567620Y7815966D01*
X10520011Y7863575D01*
Y7796922D01*
X10526664Y6773815D02*
X10531425Y6764293D01*
X10540946Y6754772D01*
X10550468Y6750011D01*
X10569512D01*
X10579033Y6754772D01*
X10588555Y6764293D01*
X10593316Y6773815D01*
X10598077Y6788098D01*
Y6811902D01*
X10593316Y6826185D01*
X10588555Y6835707D01*
X10579033Y6845228D01*
X10569512Y6849989D01*
X10550468D01*
X10540946Y6845228D01*
X10531425Y6835707D01*
X10526664Y6826185D01*
X10489053Y6750011D02*
X10436683D01*
X10465248Y6788098D01*
X10450966D01*
X10441444Y6792859D01*
X10436683Y6797620D01*
X10431922Y6811902D01*
Y6821424D01*
X10436683Y6835707D01*
X10446205Y6845228D01*
X10460488Y6849989D01*
X10474770D01*
X10489053Y6845228D01*
X10493814Y6840468D01*
X10498575Y6830946D01*
X9823322Y7623815D02*
X9828083Y7614293D01*
X9837605Y7604771D01*
X9847127Y7600010D01*
X9866171D01*
X9875692Y7604771D01*
X9885214Y7614293D01*
X9889975Y7623815D01*
X9894736Y7638098D01*
Y7661902D01*
X9889975Y7676185D01*
X9885214Y7685706D01*
X9875692Y7695228D01*
X9866171Y7699989D01*
X9847127D01*
X9837605Y7695228D01*
X9828083Y7685706D01*
X9823322Y7676185D01*
X9795233Y7619054D02*
X9785712Y7614293D01*
X9771429Y7600010D01*
Y7699989D01*
X9693350Y7600010D02*
X9707633Y7604771D01*
X9717155Y7619054D01*
X9721916Y7642858D01*
Y7657141D01*
X9717155Y7680946D01*
X9707633Y7695228D01*
X9693350Y7699989D01*
X9683829D01*
X9669546Y7695228D01*
X9660024Y7680946D01*
X9655263Y7657141D01*
Y7642858D01*
X9660024Y7619054D01*
X9669546Y7604771D01*
X9683829Y7600010D01*
X9693350D01*
X9101184Y8423323D02*
X9110706Y8428084D01*
X9120228Y8437605D01*
X9124989Y8447127D01*
Y8466171D01*
X9120228Y8475692D01*
X9110706Y8485214D01*
X9101184Y8489975D01*
X9086902Y8494736D01*
X9063097D01*
X9048815Y8489975D01*
X9039293Y8485214D01*
X9029771Y8475692D01*
X9025010Y8466171D01*
Y8447127D01*
X9029771Y8437605D01*
X9039293Y8428084D01*
X9048815Y8423323D01*
X9105945Y8395234D02*
X9110706Y8385712D01*
X9124989Y8371429D01*
X9025010D01*
X9101184Y8317155D02*
X9105945D01*
X9115467Y8312394D01*
X9120228Y8307633D01*
X9124989Y8298112D01*
Y8279068D01*
X9120228Y8269546D01*
X9115467Y8264785D01*
X9105945Y8260025D01*
X9096424D01*
X9086902Y8264785D01*
X9072619Y8274307D01*
X9025010Y8321916D01*
Y8255264D01*
%TF.MD5,19d45b8a035a66808ad7a8c836fd7463*%
M02*
